<svg xmlns="http://www.w3.org/2000/svg" width="57" height="57" viewBox="0 0 57 57">
  <g id="Group_99203" data-name="Group 99203" transform="translate(-948.18 -3968.768)">
    <rect id="Vector" width="57" height="57" transform="translate(948.18 3968.768)" fill="#e2e4e4" opacity="0"/>
    <g id="books" transform="translate(949.731 3970.317)">
      <path id="Path_123563" data-name="Path 123563" d="M52.667,29.506H50.886V18.816h1.782a1.782,1.782,0,0,0,0-3.563H47.278A8.826,8.826,0,0,0,49.1,9.908,8.918,8.918,0,0,0,40.2,1H2.782a1.782,1.782,0,1,0,0,3.563H4.563v10.69H2.782a1.782,1.782,0,0,0,0,3.563H8.171a8.735,8.735,0,0,0,0,10.69H2.782a1.782,1.782,0,0,0,0,3.563H4.563v10.69H2.782a1.782,1.782,0,1,0,0,3.563h19.6v5.345a1.782,1.782,0,0,0,2.346,1.691l4.78-1.595,4.782,1.595a1.8,1.8,0,0,0,.563.091,1.781,1.781,0,0,0,1.782-1.782V47.322H40.2A8.918,8.918,0,0,0,49.1,38.414a8.826,8.826,0,0,0-1.826-5.345h5.389a1.782,1.782,0,0,0,0-3.563ZM8.127,4.563H40.2a5.345,5.345,0,1,1,0,10.69H8.127Zm1.782,19.6a5.351,5.351,0,0,1,5.345-5.345H47.322v10.69H15.253A5.351,5.351,0,0,1,9.908,24.161ZM33.069,50.194l-3-1a1.843,1.843,0,0,0-.563-.091,1.792,1.792,0,0,0-.563.093l-3,1V41.978h7.127Zm12.471-11.78A5.351,5.351,0,0,1,40.2,43.759H36.633V40.2a1.781,1.781,0,0,0-1.782-1.782H24.161A1.781,1.781,0,0,0,22.38,40.2v3.563H8.127V33.069H40.2A5.351,5.351,0,0,1,45.541,38.414Z" fill="#5ca898"/>
    </g>
  </g>
</svg>
