<svg xmlns="http://www.w3.org/2000/svg" width="30.309" height="30.309" viewBox="0 0 30.309 30.309">
  <path id="calendar-clock-2" d="M21.371,13.481a7.914,7.914,0,1,0,7.938,7.89A7.947,7.947,0,0,0,21.371,13.481Zm0,14.607a6.693,6.693,0,1,1,6.717-6.717A6.7,6.7,0,0,1,21.371,28.087Zm1.653-5.928a.611.611,0,0,1-.865.863L20.939,21.8a.61.61,0,0,1-.178-.432V18.927a.611.611,0,0,1,1.221,0v2.19Zm.789-19.717H21.981V.611a.611.611,0,0,0-1.221,0V2.442H8.548V.611a.611.611,0,0,0-1.221,0V2.442H5.5A5.5,5.5,0,0,0,0,7.938V23.813a5.5,5.5,0,0,0,5.5,5.5h7.327a.611.611,0,0,0,0-1.221H5.5a4.279,4.279,0,0,1-4.274-4.274V10.991H28.087v1.832a.611.611,0,0,0,1.221,0V7.938A5.5,5.5,0,0,0,23.813,2.442ZM1.221,9.77V7.938A4.279,4.279,0,0,1,5.5,3.664H23.813a4.279,4.279,0,0,1,4.274,4.274V9.77Z" transform="translate(0.5 0.5)" fill="#5ca898" stroke="#5ca898" stroke-width="1"/>
</svg>
