<svg xmlns="http://www.w3.org/2000/svg" width="32.877" height="32.877" viewBox="0 0 32.877 32.877">
  <path id="calendar-lines-pen-2" d="M25.9,2.656H23.908V.664a.664.664,0,1,0-1.328,0V2.656H9.3V.664a.664.664,0,0,0-1.328,0V2.656H5.977A5.984,5.984,0,0,0,0,8.633V25.9a5.984,5.984,0,0,0,5.977,5.977H11.29a.664.664,0,0,0,0-1.328H5.977A4.654,4.654,0,0,1,1.328,25.9V11.954H31.213a.664.664,0,0,0,.664-.664V8.633A5.984,5.984,0,0,0,25.9,2.656Zm4.649,7.969H1.328V8.633A4.654,4.654,0,0,1,5.977,3.985H25.9a4.654,4.654,0,0,1,4.649,4.649Zm-4.341,4.957L15.972,25.819a4.618,4.618,0,0,0-1.361,3.287v2.107a.664.664,0,0,0,.664.664h2.107a4.618,4.618,0,0,0,3.287-1.361L30.9,20.279a3.322,3.322,0,0,0,0-4.7,3.4,3.4,0,0,0-4.7,0Zm3.756,3.756L19.728,29.575a3.3,3.3,0,0,1-2.348.972H15.937V29.1a3.3,3.3,0,0,1,.972-2.348L27.146,16.52a2.041,2.041,0,0,1,2.817,0,1.994,1.994,0,0,1,0,2.818ZM6.64,17.929a.664.664,0,0,1,.664-.664H19.259a.664.664,0,0,1,0,1.328H7.305a.664.664,0,0,1-.664-.664Zm6.641,6.641a.664.664,0,0,1-.664.664H7.305a.664.664,0,1,1,0-1.328h5.313a.664.664,0,0,1,.664.664Z" transform="translate(0.5 0.5)" fill="#5ca898" stroke="#5ca898" stroke-width="1"/>
</svg>
