<svg xmlns="http://www.w3.org/2000/svg" width="57" height="57" viewBox="0 0 57 57">
  <g id="Group_99206" data-name="Group 99206" transform="translate(-1538 -3716)">
    <rect id="Vector" width="57" height="57" transform="translate(1538 3716)" fill="#e2e4e4" opacity="0"/>
    <g id="Group_99095" data-name="Group 99095" transform="translate(-212.333 -461.064)">
      <g id="Vector-2" data-name="Vector" transform="translate(1774.077 4197.467) rotate(-16)" fill="#5ca898">
        <path d="M 12.4319953918457 5.94144344329834 C 12.32300472259521 5.94144344329834 12.2117748260498 5.92526388168335 12.08297538757324 5.906513690948486 L 12.02991771697998 5.898850917816162 L 1.273105144500732 3.170833587646484 C 0.4424551427364349 2.963173627853394 -0.06242484599351883 2.111743688583374 0.1473051458597183 1.272773623466492 C 0.3199451565742493 0.5822636485099792 0.9429751634597778 0.09999364614486694 1.662395119667053 0.09999364614486694 C 1.790885210037231 0.09999364614486694 1.919705152511597 0.1159136518836021 2.045285224914551 0.1473036557435989 L 12.80682468414307 2.876523733139038 C 13.63747501373291 3.084193706512451 14.14235496520996 3.935623645782471 13.93262481689453 4.77458381652832 C 13.76863479614258 5.450993537902832 13.13760471343994 5.94144344329834 12.4319953918457 5.94144344329834 Z" stroke="none"/>
        <path d="M 12.4319953918457 5.841443538665771 C 13.09202480316162 5.841443538665771 13.68218517303467 5.383143424987793 13.83560562133789 4.75032377243042 C 14.0319652557373 3.964863538742065 13.55972480773926 3.167833566665649 12.78223514556885 2.973453760147095 L 2.02102518081665 0.244323655962944 C 1.903375148773193 0.2149036526679993 1.782705187797546 0.1999936550855637 1.662395119667053 0.1999936550855637 C 0.9889451265335083 0.1999936550855637 0.4058051407337189 0.6511136293411255 0.2443251460790634 1.297033667564392 C 0.04795515164732933 2.0825035572052 0.5202051401138306 2.879533767700195 1.297695159912109 3.073903560638428 L 12.049391746521 5.800623893737793 L 12.09737491607666 5.807563781738281 C 12.22232532501221 5.825743675231934 12.33024501800537 5.841443538665771 12.4319953918457 5.841443538665771 M 12.4319953918457 6.041443824768066 C 12.29885482788086 6.041443824768066 12.1657247543335 6.019253730773926 12.01039505004883 5.997063636779785 L 1.248525142669678 3.267763614654541 C 0.360955148935318 3.045873641967773 -0.1715948432683945 2.136103630065918 0.0502951517701149 1.248523592948914 C 0.2721951603889465 0.360953688621521 1.181953907012939 -0.1715963631868362 2.069535255432129 0.05029365047812462 L 12.83140468597412 2.779593706130981 C 13.71898555755615 3.001493692398071 14.25152492523193 3.911253690719604 14.02963542938232 4.798833847045898 C 13.8521146774292 5.531083583831787 13.16424560546875 6.041443824768066 12.4319953918457 6.041443824768066 Z" stroke="none" fill="#f7f7f5"/>
      </g>
      <g id="Vector-3" data-name="Vector" transform="translate(1774.332 4206.327) rotate(-16)" fill="#5ca898">
        <path d="M 8.127251625061035 4.854162216186523 C 8.018251419067383 4.854162216186523 7.907001495361328 4.837972164154053 7.778191566467285 4.81923246383667 L 7.725281238555908 4.811585903167725 L 1.273181319236755 3.170842409133911 C 0.870621383190155 3.070212364196777 0.5320613384246826 2.816692352294922 0.3194513618946075 2.456902265548706 C 0.1073013618588448 2.097882270812988 0.04617136344313622 1.67735230922699 0.1473113596439362 1.272772312164307 C 0.319941371679306 0.5822623372077942 0.9429613351821899 0.1000023186206818 1.662381410598755 0.1000023186206818 C 1.790871381759644 0.1000023186206818 1.919701337814331 0.1159223169088364 2.045281410217285 0.1473123133182526 L 8.502011299133301 1.78923237323761 C 9.332731246948242 1.996912360191345 9.837611198425293 2.848342418670654 9.627871513366699 3.687302350997925 C 9.466081619262695 4.374882221221924 8.84913158416748 4.854162216186523 8.127251625061035 4.854162216186523 Z" stroke="none"/>
        <path d="M 8.127251625061035 4.754162311553955 C 8.813220977783203 4.754162311553955 9.377021789550781 4.316762447357178 9.530851364135742 3.663042306900024 C 9.727221488952637 2.877582311630249 9.25498104095459 2.080552339553833 8.477371215820312 1.886142373085022 L 2.021021366119385 0.2443323135375977 C 1.903371334075928 0.2149123251438141 1.782701373100281 0.2000023126602173 1.662381410598755 0.2000023126602173 C 0.9889313578605652 0.2000023126602173 0.4058013558387756 0.6511123180389404 0.2443313598632812 1.297032356262207 C 0.1496013551950455 1.675932288169861 0.2068513631820679 2.069782257080078 0.4055513739585876 2.40603232383728 C 0.6044313907623291 2.742612361907959 0.9210413694381714 2.979732275009155 1.297821402549744 3.073932409286499 L 7.744701385498047 4.713348388671875 L 7.792581558227539 4.720272541046143 C 7.917561531066895 4.738462448120117 8.025491714477539 4.754162311553955 8.127251625061035 4.754162311553955 M 8.127251625061035 4.954162120819092 C 7.99411153793335 4.954162120819092 7.860971450805664 4.931972503662109 7.70565128326416 4.909782409667969 L 1.248531341552734 3.267762422561646 C 0.3609513640403748 3.045872211456299 -0.1715986430644989 2.136102437973022 0.05030136182904243 1.248522281646729 C 0.2721913456916809 0.3609523177146912 1.181960463523865 -0.1715977340936661 2.069531440734863 0.05030231922864914 L 8.526660919189453 1.692312359809875 C 9.414231300354004 1.914212346076965 9.946781158447266 2.823972225189209 9.724881172180176 3.711552381515503 C 9.547370910644531 4.465992450714111 8.881690979003906 4.954162120819092 8.127251625061035 4.954162120819092 Z" stroke="none" fill="#f7f7f5"/>
      </g>
      <path id="scroll" d="M48.471,30.359H46.163V7.143C46.163,3.2,42.022,0,36.93,0H8.078C3.624,0,0,2.8,0,6.25v.893C0,10.1,3.107,12.5,6.924,12.5h4.616V36.609c0,3.445,3.621,6.249,8.076,6.25h27.7c4.455,0,8.078-2.8,8.078-6.25v-.893C55.4,32.763,52.288,30.359,48.471,30.359ZM11.541,8.929H6.924A2.1,2.1,0,0,1,4.616,7.143V6.25c0-1.477,1.553-2.679,3.462-2.679s3.462,1.2,3.462,2.679ZM23.081,35.717v.893c0,1.477-1.553,2.679-3.462,2.679s-3.462-1.2-3.462-2.679V6.25a5.075,5.075,0,0,0-.81-2.679H36.93c2.546,0,4.616,1.6,4.616,3.572V30.359H30.006C26.188,30.359,23.081,32.763,23.081,35.717Zm27.7.893c0,1.477-1.553,2.679-3.462,2.679h-20.4a5.091,5.091,0,0,0,.78-2.679v-.893a2.1,2.1,0,0,1,2.308-1.786H48.471a2.1,2.1,0,0,1,2.308,1.786Z" transform="translate(1751.257 4184.063)" fill="#5ca898" stroke="#f7f7f5" stroke-width="1"/>
    </g>
  </g>
</svg>
