<svg xmlns="http://www.w3.org/2000/svg" width="35.901" height="35.923" viewBox="0 0 35.901 35.923">
  <path id="e-learning" d="M29.188,4.535A5.867,5.867,0,0,0,21.854.226L19.325.949a4.372,4.372,0,0,0-1.725.959A4.372,4.372,0,0,0,15.876.949L13.347.226A5.867,5.867,0,0,0,6.021,4.535,7.334,7.334,0,0,0,0,11.735V22a7.342,7.342,0,0,0,7.334,7.334h8.8v2.933h-4.4a1.467,1.467,0,0,0,0,2.933H23.467a1.467,1.467,0,0,0,0-2.933h-4.4V29.335h8.8A7.342,7.342,0,0,0,35.2,22V11.735a7.334,7.334,0,0,0-6.014-7.2Zm-10.12.645a1.467,1.467,0,0,1,1.063-1.41l2.53-.723a2.933,2.933,0,0,1,3.74,2.82v5.776a2.942,2.942,0,0,1-2.127,2.818l-5.207,1.487ZM9.974,3.521a2.923,2.923,0,0,1,2.567-.474l2.53.723a1.467,1.467,0,0,1,1.063,1.41V15.949l-5.207-1.487A2.942,2.942,0,0,1,8.8,11.644V5.868A2.914,2.914,0,0,1,9.974,3.521ZM32.268,22a4.4,4.4,0,0,1-4.4,4.4H7.334a4.4,4.4,0,0,1-4.4-4.4V11.735A4.4,4.4,0,0,1,5.867,7.6v4.039a5.887,5.887,0,0,0,4.253,5.64l5.062,1.448a8.828,8.828,0,0,0,4.84,0l5.062-1.448a5.887,5.887,0,0,0,4.251-5.64V7.6a4.4,4.4,0,0,1,2.933,4.13Z" transform="translate(0.35 0.371)" fill="#5ca898" stroke="#fbf9fa" stroke-width="0.7"/>
</svg>
