<svg id="Group_94418" data-name="Group 94418" xmlns="http://www.w3.org/2000/svg" width="36.836" height="36.835" viewBox="0 0 36.836 36.835">
  <g id="Ellipse_3010" data-name="Ellipse 3010" transform="translate(0 0)" fill="none" stroke="#d7a54a" stroke-width="1">
    <circle cx="18.418" cy="18.418" r="18.418" stroke="none"/>
    <circle cx="18.418" cy="18.418" r="17.918" fill="none"/>
  </g>
  <path id="Icon_feather-facebook" data-name="Icon feather-facebook" d="M17.706,2.25h2.751a.621.621,0,0,1,.621.621V6.538a.621.621,0,0,1-.621.621H17.706a.3.3,0,0,0-.3.3v2.13h3.047a.621.621,0,0,1,.6.771l-.917,3.667a.621.621,0,0,1-.6.47H17.41v6.714a.621.621,0,0,1-.621.621H13.121a.621.621,0,0,1-.621-.621V14.494h-2.13a.621.621,0,0,1-.621-.621V10.206a.621.621,0,0,1,.621-.621H12.5V7.455A5.211,5.211,0,0,1,17.706,2.25Zm2.13,1.242h-2.13a3.968,3.968,0,0,0-3.963,3.963v2.751a.621.621,0,0,1-.621.621h-2.13v2.426h2.13a.621.621,0,0,1,.621.621v6.714h2.426V13.873a.621.621,0,0,1,.621-.621h2.266l.606-2.426H16.789a.621.621,0,0,1-.621-.621V7.455a1.539,1.539,0,0,1,1.538-1.538h2.13Z" transform="translate(2.91 5.532)" fill="#d7a54a" stroke="#4a464d" stroke-linecap="round" stroke-width="0.4"/>
</svg>
