<svg xmlns="http://www.w3.org/2000/svg" width="38.201" height="38.202" viewBox="0 0 38.201 38.202">
  <path id="comments-question" d="M14.325,17.509a1.591,1.591,0,0,1-1.592-1.592,3.847,3.847,0,0,1,2.357-3.379,1.591,1.591,0,1,0-2.357-1.394,1.592,1.592,0,1,1-3.183,0,4.775,4.775,0,1,1,7.077,4.185c-.711.392-.711.506-.711.591a1.591,1.591,0,0,1-1.592,1.592Zm0,1.592a1.99,1.99,0,1,0,1.99,1.99A1.99,1.99,0,0,0,14.325,19.1Zm17.5-4.648a17.458,17.458,0,0,1-.395,3.569,9.532,9.532,0,0,1,3.585,7.446v7.958a1.592,1.592,0,0,1-1.592,1.592H25.467a9.532,9.532,0,0,1-7.446-3.585,17.569,17.569,0,0,1-3.569.395A12.732,12.732,0,0,0,25.467,38.2h7.958A4.775,4.775,0,0,0,38.2,33.426V25.468a12.732,12.732,0,0,0-6.373-11.015Zm-3.214.909A14.326,14.326,0,0,0,13.289.037C6.085.546,0,7.3,0,14.8v8.019a5.838,5.838,0,0,0,5.827,5.835h7.126C21.209,28.651,28.089,22.814,28.614,15.362ZM22.2,6.447a11.166,11.166,0,0,1,3.236,8.691c-.4,5.7-6,10.329-12.487,10.329H5.827a2.65,2.65,0,0,1-2.644-2.652V14.8c0-5.883,4.731-11.188,10.33-11.584.266-.019.53-.029.794-.029a11.15,11.15,0,0,1,7.9,3.265Z" transform="translate(0 0.001)" fill="#af7f28"/>
</svg>
