<svg id="Group_99176" data-name="Group 99176" xmlns="http://www.w3.org/2000/svg" xmlns:xlink="http://www.w3.org/1999/xlink" width="15.41" height="18.307" viewBox="0 0 15.41 18.307">
  <defs>
    <linearGradient id="linear-gradient" x1="0.5" x2="0.5" y2="1" gradientUnits="objectBoundingBox">
      <stop offset="0" stop-color="#c6a05a"/>
      <stop offset="1" stop-color="#4c241d"/>
    </linearGradient>
    <clipPath id="clip-path">
      <rect id="Rectangle_53523" data-name="Rectangle 53523" width="15.41" height="18.307" fill="url(#linear-gradient)"/>
    </clipPath>
  </defs>
  <g id="Group_97737" data-name="Group 97737" clip-path="url(#clip-path)">
    <path id="Path_124511" data-name="Path 124511" d="M15.407,17.769a3.847,3.847,0,0,0-.387.121,5.456,5.456,0,0,1-3.159.319,16.927,16.927,0,0,1-3.1-.954,27.223,27.223,0,0,0-3.21-1.074,9.616,9.616,0,0,0-3.21-.263c-.265.026-.529.07-.8.091.033-.014.066-.028.1-.041A19.294,19.294,0,0,0,6.8,13.259,11.85,11.85,0,0,0,9.939,9.836a7.731,7.731,0,0,0,1.114-4.211A2.7,2.7,0,0,0,8.705,2.94a4.1,4.1,0,0,0-3.453.895,2.636,2.636,0,0,0-.97,1.588,2.053,2.053,0,0,0,.094,1.094.479.479,0,0,0,.637.353,8.013,8.013,0,0,0,1.022-.422,5.938,5.938,0,0,1,1.356-.534A5.6,5.6,0,0,1,8.849,5.9c.378.024.758.034,1.136.021a.874.874,0,0,0,.643-.338l.042.011c-.017.225-.021.451-.054.674a6.119,6.119,0,0,1-.943,2.4,13.9,13.9,0,0,1-2.568,2.918A19.764,19.764,0,0,1,.681,15.392c-.211.076-.426.141-.681.225l.484-.644a28.531,28.531,0,0,0,2.046-2.962,8.48,8.48,0,0,0,1.1-3.094c.043-.325.063-.653.1-1A3.168,3.168,0,0,0,4.761,9.17c-.012-.02-.022-.041-.036-.06A7.085,7.085,0,0,1,3.382,5.737,5.36,5.36,0,0,1,4.518,1.554,4.185,4.185,0,0,1,9.441.364a4.177,4.177,0,0,1,1.886,1.851,6.432,6.432,0,0,1,.713,2.526,9.228,9.228,0,0,1-.107,2.439,1.108,1.108,0,0,0,.009.277c.07.86.121,1.722.215,2.58a18.24,18.24,0,0,0,1.187,5.118,6,6,0,0,0,2.063,2.616s0,.008,0,0" transform="translate(0 0)" fill="url(#linear-gradient)"/>
  </g>
</svg>
