<svg xmlns="http://www.w3.org/2000/svg" xmlns:xlink="http://www.w3.org/1999/xlink" width="47" height="47" viewBox="0 0 47 47">
  <defs>
    <clipPath id="clip-path">
      <rect id="Rectangle_53523" data-name="Rectangle 53523" width="23.497" height="27.915" fill="#5ca898"/>
    </clipPath>
  </defs>
  <g id="Group_95579" data-name="Group 95579" transform="translate(-1236 -5432.489)">
    <circle id="Ellipse_3027" data-name="Ellipse 3027" cx="23.5" cy="23.5" r="23.5" transform="translate(1236 5432.489)" fill="#5ca898" opacity="0.1"/>
    <g id="Group_99340" data-name="Group 99340" transform="translate(1247.655 5442.032)">
      <g id="Group_97737" data-name="Group 97737" clip-path="url(#clip-path)">
        <path id="Path_124511" data-name="Path 124511" d="M23.492,27.095a5.866,5.866,0,0,0-.59.185,8.319,8.319,0,0,1-4.817.486A25.81,25.81,0,0,1,13.36,26.31a41.511,41.511,0,0,0-4.895-1.637,14.664,14.664,0,0,0-4.9-.4c-.4.039-.806.106-1.219.139.051-.021.1-.043.152-.062a29.421,29.421,0,0,0,7.868-4.131A18.069,18.069,0,0,0,15.155,15a11.788,11.788,0,0,0,1.7-6.422,4.124,4.124,0,0,0-3.58-4.093A6.254,6.254,0,0,0,8.008,5.847,4.019,4.019,0,0,0,6.529,8.268a3.131,3.131,0,0,0,.143,1.669.731.731,0,0,0,.971.538A12.218,12.218,0,0,0,9.2,9.831a9.055,9.055,0,0,1,2.068-.815,8.539,8.539,0,0,1,2.224-.024c.576.036,1.156.051,1.733.032a1.332,1.332,0,0,0,.98-.515l.065.017c-.026.343-.032.688-.083,1.027a9.33,9.33,0,0,1-1.438,3.665,21.193,21.193,0,0,1-3.916,4.449,30.137,30.137,0,0,1-9.8,5.8c-.321.116-.649.215-1.039.343l.738-.981a43.505,43.505,0,0,0,3.121-4.516A12.931,12.931,0,0,0,5.534,13.6c.066-.5.1-1,.146-1.53a4.83,4.83,0,0,0,1.579,1.915c-.018-.03-.034-.063-.055-.091A10.8,10.8,0,0,1,5.156,8.748,8.173,8.173,0,0,1,6.889,2.369,6.381,6.381,0,0,1,14.4.555a6.37,6.37,0,0,1,2.875,2.823A9.807,9.807,0,0,1,18.359,7.23,14.072,14.072,0,0,1,18.2,10.95a1.689,1.689,0,0,0,.014.422c.106,1.311.184,2.626.328,3.933a27.813,27.813,0,0,0,1.81,7.8,9.147,9.147,0,0,0,3.146,3.99s.005.011,0,0" transform="translate(0 0)" fill="#5ca898"/>
      </g>
    </g>
  </g>
</svg>
