<svg xmlns="http://www.w3.org/2000/svg" width="29.912" height="32.168" viewBox="0 0 29.912 32.168">
  <g id="gps" transform="translate(-6.75 0.495)">
    <path id="Path_123673" data-name="Path 123673" d="M112.659,166.173h-8a.31.31,0,0,1-.3-.235l-1.413-5.62a.312.312,0,0,1,.6-.153l1.354,5.385h7.761a.312.312,0,1,1,0,.623Z" transform="translate(-80.77 -134.999)" fill="#d7a54a" stroke="#d7a54a" stroke-width="1"/>
    <path id="Path_123674" data-name="Path 123674" d="M15.566,155.933h-8a.312.312,0,0,1,0-.623h7.761l1.829-7.275a.312.312,0,1,1,.6.153L15.869,155.7A.31.31,0,0,1,15.566,155.933Z" transform="translate(0 -124.76)" fill="#d7a54a" stroke="#d7a54a" stroke-width="1"/>
    <path id="Path_123675" data-name="Path 123675" d="M53.124,50.015a12.4,12.4,0,0,1-10.7-18.678.314.314,0,0,1,.229-.151.31.31,0,0,1,.26.089L59.457,47.818a.31.31,0,0,1,.089.26.314.314,0,0,1-.151.229,12.341,12.341,0,0,1-6.269,1.708ZM42.761,32.006A11.779,11.779,0,0,0,58.726,47.971Z" transform="translate(-28.251 -26.315)" fill="#d7a54a" stroke="#d7a54a" stroke-width="1"/>
    <path id="Path_123676" data-name="Path 123676" d="M128.263,11.856a.313.313,0,0,1-.309-.266A12.939,12.939,0,0,0,117,.631a.312.312,0,0,1,.09-.617A13.561,13.561,0,0,1,128.573,11.5a.313.313,0,0,1-.263.354.44.44,0,0,1-.045,0Z" transform="translate(-92.42 0)" fill="#d7a54a" stroke="#d7a54a" stroke-width="1"/>
    <path id="Path_123677" data-name="Path 123677" d="M118.576,37.214a.313.313,0,0,1-.31-.277,8.266,8.266,0,0,0-2.4-5,8.373,8.373,0,0,0-5-2.4.311.311,0,1,1,.067-.619,8.973,8.973,0,0,1,7.953,7.953.31.31,0,0,1-.276.343l-.034,0Z" transform="translate(-87.236 -24.401)" fill="#d7a54a" stroke="#d7a54a" stroke-width="1"/>
    <path id="Path_123678" data-name="Path 123678" d="M108.831,62.712a.313.313,0,0,1-.312-.312,3.788,3.788,0,0,0-3.788-3.8h-.009a.312.312,0,0,1,0-.623h.011a4.41,4.41,0,0,1,4.411,4.422.313.313,0,0,1-.312.312Z" transform="translate(-82.02 -48.936)" fill="#d7a54a" stroke="#d7a54a" stroke-width="1"/>
  </g>
</svg>
