<svg xmlns="http://www.w3.org/2000/svg" width="57" height="57" viewBox="0 0 57 57">
  <g id="Group_99202" data-name="Group 99202" transform="translate(-1541.1 -3717.755)">
    <rect id="Vector" width="57" height="57" transform="translate(1541.1 3717.755)" fill="#e2e4e4" opacity="0"/>
    <g id="Group_99043" data-name="Group 99043" transform="translate(-197.82 -771.901)">
      <g id="Group_94112" data-name="Group 94112" transform="translate(-10 316.016)">
        <g id="Group_94111" data-name="Group 94111">
          <g id="language" transform="translate(1749.675 4174.396)">
            <g id="Group_94522" data-name="Group 94522" transform="translate(8.237 11.488)">
              <g id="Group_94521" data-name="Group 94521">
                <path id="Path_123560" data-name="Path 123560" d="M88.972,123.564,85.72,107.307A1.626,1.626,0,0,0,84.126,106H80.875a1.626,1.626,0,0,0-1.594,1.307L76.03,123.564a1.626,1.626,0,0,0,3.188.638l1.039-5.2h4.488l1.039,5.2a1.626,1.626,0,1,0,3.188-.638Zm-8.065-7.81,1.3-6.5h.586l1.3,6.5Z" transform="translate(-75.998 -106)" fill="#5ca898"/>
              </g>
            </g>
            <g id="Group_94524" data-name="Group 94524" transform="translate(32.622 21.242)">
              <g id="Group_94523" data-name="Group 94523">
                <path id="Path_123561" data-name="Path 123561" d="M315.631,199.251h-4.877v-1.626a1.626,1.626,0,0,0-3.251,0v1.626h-4.877a1.626,1.626,0,0,0,0,3.251h.393a20.338,20.338,0,0,0,3.856,7.13c-1.249,1.143-2.513,2.079-3.639,2.98a1.626,1.626,0,1,0,2.031,2.539c1.132-.906,2.489-1.912,3.861-3.172,1.373,1.26,2.733,2.269,3.861,3.172a1.626,1.626,0,1,0,2.031-2.539c-1.123-.9-2.388-1.836-3.639-2.98a20.338,20.338,0,0,0,3.856-7.13h.393a1.626,1.626,0,0,0,0-3.251Zm-6.5,7.992a17.126,17.126,0,0,1-2.675-4.752h5.35A17.122,17.122,0,0,1,309.128,207.244Z" transform="translate(-301 -196)" fill="#5ca898"/>
              </g>
            </g>
            <g id="Group_94526" data-name="Group 94526">
              <g id="Group_94525" data-name="Group 94525">
                <path id="Path_123562" data-name="Path 123562" d="M50.613,9.863H27.16l-.7-5.59A4.885,4.885,0,0,0,21.624,0H4.877A4.883,4.883,0,0,0,0,4.877V40.751a4.883,4.883,0,0,0,4.877,4.877H18.585l.688,5.59a4.888,4.888,0,0,0,4.839,4.272h26.5a4.883,4.883,0,0,0,4.877-4.877V14.74A4.883,4.883,0,0,0,50.613,9.863ZM4.877,42.376a1.628,1.628,0,0,1-1.626-1.626V4.877A1.628,1.628,0,0,1,4.877,3.251H21.624a1.628,1.628,0,0,1,1.613,1.423l4.7,37.7ZM22.4,50.044l-.544-4.416h4.362Zm29.834.569a1.628,1.628,0,0,1-1.626,1.626H24.805l6.189-7.159a1.623,1.623,0,0,0,.393-1.3L27.565,13.114H50.613a1.628,1.628,0,0,1,1.626,1.626Z" fill="#5ca898"/>
              </g>
            </g>
          </g>
        </g>
      </g>
    </g>
  </g>
</svg>
