<svg xmlns="http://www.w3.org/2000/svg" width="37.08" height="37.08" viewBox="0 0 37.08 37.08">
  <path id="laptop-mobile" d="M1.5,23.3a2.252,2.252,0,0,0,2.255,2.255h13.53a.752.752,0,0,1,0,1.5H3.758a3.759,3.759,0,0,1-.752-7.442V6.765A6.775,6.775,0,0,1,9.772,0H26.308a6.775,6.775,0,0,1,6.765,6.765V9.772a.752.752,0,1,1-1.5,0V6.765A5.267,5.267,0,0,0,26.308,1.5H9.772A5.267,5.267,0,0,0,4.51,6.765V19.543h8.268a.705.705,0,0,1,.526.225l1.278,1.278h2.691a.752.752,0,0,1,0,1.5H14.267a.705.705,0,0,1-.526-.226l-1.278-1.278h-8.7A2.252,2.252,0,0,0,1.5,23.3Zm34.577-4.51V30.818a5.267,5.267,0,0,1-5.262,5.262h-4.51a5.267,5.267,0,0,1-5.262-5.262V18.792a5.267,5.267,0,0,1,5.262-5.262h4.51A5.267,5.267,0,0,1,36.08,18.792Zm-1.5,0a3.76,3.76,0,0,0-3.758-3.758h-4.51a3.76,3.76,0,0,0-3.758,3.758V30.818a3.76,3.76,0,0,0,3.758,3.758h4.51a3.76,3.76,0,0,0,3.758-3.758Z" transform="translate(0.5 0.5)" fill="#5ca898" stroke="#5ca898" stroke-width="1"/>
</svg>
