<svg xmlns="http://www.w3.org/2000/svg" xmlns:xlink="http://www.w3.org/1999/xlink" width="276.586" height="99.454" viewBox="0 0 276.586 99.454">
  <defs>
    <linearGradient id="linear-gradient" x1="0.5" x2="0.5" y2="1.475" gradientUnits="objectBoundingBox">
      <stop offset="0" stop-color="#c6a05a"/>
      <stop offset="1" stop-color="#4c241d"/>
    </linearGradient>
  </defs>
  <g id="Group_95682" data-name="Group 95682" transform="translate(0 0)">
    <g id="Group_93366" data-name="Group 93366" transform="translate(0 0)">
      <path id="Union_19" data-name="Union 19" d="M230.262,99.454h.005Zm-9.16,0V98.135L174.3,84.8l1.885-.932,46.366,13.174v.969h6.27v-.969l46.4-13.174,1.365.932L230.262,98.135v1.319Zm4.591-5.668-3.364,1.5-.341-.093c-7.028-1.989-14.236-4.066-21.2-6.076l-3.354-.963c-6.037-1.746-12.3-3.545-18.4-5.271l-1.9-.535,4.127-3.02.479.165a49.564,49.564,0,0,0,5.111,1.5,48.632,48.632,0,0,1-2.885-4.741A46.925,46.925,0,0,1,232.241,7.9V.576a.594.594,0,0,1,.206-.444.6.6,0,0,1,.819.062l8.868,10.274a46.9,46.9,0,0,1,21.8,70.663,52.866,52.866,0,0,0,5.7-1.638l.474-.16.005-.005,4.127,3.02-1.9.535c-6.1,1.726-12.354,3.525-18.4,5.271l-3.344.963c-6.967,2.015-14.185,4.086-21.212,6.076l-.329.093Zm-9.12-11.521a18.092,18.092,0,0,1,8.8,4.93l.31.283.3-.283a18.162,18.162,0,0,1,8.81-4.93c4.117-1.01,7.75-.716,11.964-.386h.046c2.149.175,4.365.346,6.869.371h-.005a43.478,43.478,0,0,0,7.868-.649,45.217,45.217,0,0,0-18.3-68.886V56.953a.588.588,0,0,1-.582.582h-9.835a.582.582,0,0,1-.587-.582V9.587a44.117,44.117,0,0,0-6.8-.515A45.191,45.191,0,0,0,189.259,81.5a44.46,44.46,0,0,0,8.429.747c2.509-.025,4.73-.2,6.864-.371h.056c2.037-.156,3.939-.308,5.825-.308A25.245,25.245,0,0,1,216.573,82.266Zm-25.952-7.5a.585.585,0,0,1-.588-.587V64.345a.586.586,0,0,1,.588-.577h13.365a.594.594,0,0,0,.386-.149l8.506-7.544a.609.609,0,0,0,.186-.442.578.578,0,0,0-.577-.572H190.621a.583.583,0,0,1-.588-.582V44.643a.586.586,0,0,1,.588-.577h36.395v.005a.582.582,0,0,1,.577.577V57.458a.553.553,0,0,1-.191.432l-6.631,5.879L208.535,74.609a.506.506,0,0,1-.376.155Zm21.82-.005a.607.607,0,0,1-.413-.165.578.578,0,0,1,0-.819l11.242-9.842a.626.626,0,0,1,.4-.175h23.524a.572.572,0,0,0,.577-.577V44.844a.591.591,0,0,1,.588-.587h9.835l-.01.005a.586.586,0,0,1,.577.588V65.062a.623.623,0,0,1-.155.4l-8.939,9.12a.549.549,0,0,1-.407.175Zm-125.567-2.1a5.982,5.982,0,0,1-1.159-3.869,6.617,6.617,0,0,1,1.453-4.513,5.45,5.45,0,0,1,4.358-1.763A8.585,8.585,0,0,1,94,62.857l-.314,2.065a6.219,6.219,0,0,0-2.262-.412,2.922,2.922,0,0,0-2.448,1.1,4.458,4.458,0,0,0-.8,2.8q0,3.918,3.38,3.921a4.944,4.944,0,0,0,2.2-.484v-.011l.351,1.984a8.551,8.551,0,0,1-3.025.531A5.1,5.1,0,0,1,86.874,72.657ZM54.6,74.2V62.636q2.271-.093,3.741-.093v.005q5.88,0,5.884,5.673a5.783,5.783,0,0,1-1.778,4.519,6.6,6.6,0,0,1-4.616,1.546Q57.05,74.285,54.6,74.2Zm2.231-9.722V72.3a8.312,8.312,0,0,0,1.227.083,3.669,3.669,0,0,0,2.695-.963,4.047,4.047,0,0,0,1.066-3.024q0-3.966-3.628-3.968C57.649,64.423,57.2,64.438,56.83,64.475ZM111.053,74.2V62.631q2.273-.093,3.741-.093v.005q5.889,0,5.884,5.673a5.805,5.805,0,0,1-1.777,4.524,6.627,6.627,0,0,1-4.616,1.54C113.764,74.28,112.686,74.249,111.053,74.2Zm2.232-9.727v7.821a8.291,8.291,0,0,0,1.225.083,3.667,3.667,0,0,0,2.695-.963,4.034,4.034,0,0,0,1.066-3.024q0-3.966-3.621-3.968C114.1,64.418,113.649,64.433,113.285,64.47Zm21.233,9.748,1.772-11.6h2.622l1.964,5.992c.257.84.474,1.649.638,2.442h.032c.241-1.024.452-1.824.628-2.411l1.984-6.022h2.607l.005-.006,1.809,11.6h-2.318l-.85-5.605c-.118-.84-.243-1.809-.361-2.906h-.036c-.228,1.107-.444,1.988-.644,2.653l-1.88,5.858h-2.165l-1.788-5.446a27.13,27.13,0,0,1-.751-3.064h-.037c-.088,1.092-.191,2.128-.309,3.1l-.67,5.415Zm-53.734,0L80,71.837h-4.4l-.813,2.381H72.534l4-11.6h2.637l4.086,11.6Zm-3.478-7.594L76.121,70.07h3.307l-1.185-3.447c-.2-.608-.361-1.144-.464-1.6h-.015C77.579,65.707,77.424,66.242,77.306,66.623ZM48.757,74.218l-.788-2.381h-4.4l-.815,2.381H40.508l4-11.6h2.637l4.086,11.6Zm-3.478-7.594L44.093,70.07H47.4l-1.186-3.447c-.2-.608-.36-1.144-.463-1.6h-.017C45.551,65.707,45.4,66.242,45.279,66.623ZM29.755,74.218V72.5l4.184-6.806c.324-.494.577-.866.751-1.1-.55.02-1.262.031-2.118.031H29.888v-2h7.5v1.8l-4.414,6.956a9.078,9.078,0,0,1-.536.8c.2-.02,1.036-.031,2.514-.031h2.509v2.065Zm125.18-.005v-4.09l-3.622-7.508h2.448l1.525,3.334q.433.967.788,1.922h.031c.165-.449.474-1.164.933-2.148l1.463-3.108h2.37l-3.7,7.491v4.107Zm-30.378,0v-11.6h6.317v1.871h-4.081V67.34h3.869v1.819h-3.869v3.132h4.081v1.922Zm-19.348,0-.788-2.381h-4.394l-.815,2.381H96.962l4-11.6H103.6l4.085,11.6Zm-3.472-7.594-1.185,3.447h3.3l-1.185-3.447c-.2-.608-.356-1.144-.464-1.6h-.015C102.005,65.7,101.857,66.237,101.737,66.618ZM34.943,72.152h.005Zm125.928-9.538h.005ZM16.3,51.713l-.025-2.855h.365c1.444-.015,2.149-.705,2.139-2.025l-.093-11,2.911-.027.088,10.444c0,.391.005.732-.015,1a5.373,5.373,0,0,1-.835,2.7,4.007,4.007,0,0,1-2.772,1.684c-.339.025-.8.083-1.37.083Zm24.5-3.164,2.906-.025.027,2.963-2.907.025Zm4.127-.031,2.911-.027.027,2.963-2.912.027Zm16.724-.155,2.906-.015v.005l.027,2.948-2.907.025Zm4.127-.031,2.911-.02v.005l.027,2.951-2.912.027Zm51.894,2.514a6.88,6.88,0,0,1-2.283-.294,3.932,3.932,0,0,1-2.426-3.6,3.829,3.829,0,0,1,3.483-3.8l4.36-.031-.037-3.469c-.01-1.2-.52-1.782-1.6-1.777l-4.333.036-.027-2.906,4.23-.036a4.309,4.309,0,0,1,4.663,4.379l.036,3.741h.15l3.462-.025-.031-3.746a4.3,4.3,0,0,1,4.569-4.461h-.01l3.592-.037.076,8.79a4.313,4.313,0,0,1-4.559,4.632l-3.6.025-.015-2.293L123.9,46h-.139l-6.817.067c-.737.005-1.1.33-1.1.943s.376.9,1.108.891l2.54-.02.025,2.953-1.684.015Zm12.572-11.284.052,5.75h.731c1.071-.005,1.582-.6,1.572-1.8l-.052-5.75h-.732C130.74,37.776,130.235,38.368,130.245,39.563Zm-9.4,8.3,2.932-.025.025,2.962-2.931.027Zm28.081-.135h.365c1.438-.015,2.149-.705,2.134-2.03l-.1-11,2.916-.025.072,8.166h.144l3.442-.027-.072-8.166,2.912-.025.1,11.077h-.005l-6.359.047h-.139c-.123,3.751-2.334,4.817-5,4.843l-.381.005Zm9.015-.174,2.907-.027.025,2.968-2.906.02Zm-106.5-.933-3.478.03h-.145l-8.872.083h-.17l-2.911.025L35.8,39.244c-2.1.727-3.668,3.53-4.39,7.544l-2.983.025c.552-6.8,4.54-10.748,10.248-11.16l.072,8.171h.169l5.967-.052-.072-8.166,2.906-.025.072,8.166h.144l3.479-.036-.032-3.736a4.281,4.281,0,0,1,4.56-4.463l3.6-.036.072,8.166h.123l6.018-.052-.083-8.166,2.911-.025V35.4l.005.005h-.005l.1,11.077-8.924.072h-.123l-.567.005a4.45,4.45,0,0,1-4.117,2.335l-3.488.031Zm4.436-8.2c-1.077.01-1.593.6-1.582,1.8l.052,5.75.732-.01c1.077-.005,1.586-.6,1.571-1.8l-.041-5.75ZM0,44.159,6.43,44.1,6.415,42.34a3.178,3.178,0,0,0-.928-2.56,3.542,3.542,0,0,0-1.277-.7,8.978,8.978,0,0,0-2.226-.226l-.02-2.911.948-.01a6.743,6.743,0,0,1,4,1.139,5.908,5.908,0,0,1,2.438,5.214v.01l.041,4.694-9.361.078ZM11.455,31.17l2.911-.025.133,15.8-2.911.027Zm59.4,12.381,6.435-.057-.02-1.757a3.156,3.156,0,0,0-.928-2.561,3.5,3.5,0,0,0-1.272-.7,8.752,8.752,0,0,0-2.226-.231l-.027-2.911.948-.011a6.75,6.75,0,0,1,4,1.139A5.911,5.911,0,0,1,80.2,41.682l.005.005.042,4.693-9.368.083ZM82.3,30.563l2.916-.025.109,12.891h.2l12.565-.119-.015-1.22c-.01-1.2-.55-1.773-1.623-1.763l-7.63.057-.036-5.038L95.1,30.521l4.812-.041-8.156,6.265v.68l4.618-.036a4.331,4.331,0,0,1,4.637,4.385l.036,4.431-15.5.128h-.191l-2.912.025Zm20.816-.18,2.906-.025.139,15.8-2.911.025Zm34.52-.283,2.916-.025.109,12.891.2-.01v.01l3.395-.036-.072-8.166,2.912-.027V34.73l.092,11.077-6.3.062h-.2l-2.911.025ZM252.9,39.682l-6.951-6.956a.563.563,0,0,1,0-.813l6.951-6.967a.594.594,0,0,1,.824,0l6.951,6.956v.005a.576.576,0,0,1,.175.407.586.586,0,0,1-.175.412l-6.951,6.956a.6.6,0,0,1-.413.161A.592.592,0,0,1,252.9,39.682ZM18.668,34.02l-.027-2.906,2.907-.027L21.573,34l-2.911.025ZM31.6,33.907,31.579,31l2.953-.025.025,2.906Zm-.005,0H31.6Zm4.142-2.942,2.907-.025.025,2.911-2.917.025Zm108.41-.933,2.906-.015.025,2.906-2.906.027Zm-41.471-2.308h.639a1.547,1.547,0,0,1-.155-.638,1.891,1.891,0,0,1,1.937-1.974l.835-.01.005,1.129-.974.005c-.469.005-.711.278-.705.813,0,.439.272.66.788.655l1.391-.01h.005l.01,1.124-3.766.036Z" transform="translate(0 0)" fill="url(#linear-gradient)"/>
    </g>
  </g>
</svg>
