<svg xmlns="http://www.w3.org/2000/svg" width="212.507" height="76.413" viewBox="0 0 212.507 76.413">
  <g id="Group_94492" data-name="Group 94492" transform="translate(-1549.614 -51)">
    <g id="Group_93366" data-name="Group 93366" transform="translate(1549.616 51)">
      <path id="Union_19" data-name="Union 19" d="M-15596.582,11933.412h0Zm-7.038,0v-1.014l-35.96-10.245,1.448-.716,35.624,10.122v.744h4.817v-.744l35.651-10.122,1.049.716-35.592,10.245v1.014Zm3.527-4.354-2.585,1.152-.262-.071c-5.4-1.528-10.937-3.124-16.29-4.668l-2.577-.74c-4.639-1.342-9.449-2.724-14.14-4.05l-1.461-.411,3.171-2.32.368.127a38.084,38.084,0,0,0,3.927,1.152,37.365,37.365,0,0,1-2.217-3.643,35.826,35.826,0,0,1-4.18-16.848,36.092,36.092,0,0,1,36.051-36.051,35.958,35.958,0,0,1,5.226.38v-5.625a.456.456,0,0,1,.158-.341.46.46,0,0,1,.629.048l6.813,7.894a36.113,36.113,0,0,1,23.229,33.7,35.831,35.831,0,0,1-6.476,20.6,40.62,40.62,0,0,0,4.378-1.259l.364-.123,0,0,3.171,2.32-1.461.411c-4.69,1.326-9.492,2.708-14.136,4.05l-2.569.74c-5.353,1.548-10.9,3.14-16.3,4.668l-.253.071Zm-7.007-8.852a13.9,13.9,0,0,1,6.765,3.788l.238.218.229-.218a13.954,13.954,0,0,1,6.769-3.788c3.163-.776,5.954-.55,9.192-.3h.035c1.651.135,3.354.266,5.277.285h0a33.406,33.406,0,0,0,6.045-.5,34.59,34.59,0,0,0,7.046-20.957,34.815,34.815,0,0,0-21.1-31.97v33.989a.452.452,0,0,1-.447.447h-7.557a.447.447,0,0,1-.451-.447v-36.393a33.9,33.9,0,0,0-5.226-.4,34.809,34.809,0,0,0-34.772,34.772,34.6,34.6,0,0,0,4.014,16.227,34.962,34.962,0,0,0,2.965,4.651,34.16,34.16,0,0,0,6.477.574c1.928-.02,3.634-.15,5.273-.285h.043c1.565-.12,3.026-.236,4.476-.236A19.4,19.4,0,0,1-15607.1,11920.206Zm-19.939-5.764a.449.449,0,0,1-.452-.451v-7.554a.45.45,0,0,1,.452-.443h10.269a.456.456,0,0,0,.3-.114l6.535-5.8a.468.468,0,0,0,.143-.34.444.444,0,0,0-.443-.439h-16.8a.448.448,0,0,1-.452-.447v-7.558a.45.45,0,0,1,.452-.443h27.963v0a.447.447,0,0,1,.443.443v9.842a.425.425,0,0,1-.146.332l-5.095,4.517-9.4,8.329a.389.389,0,0,1-.289.119Zm16.765,0a.466.466,0,0,1-.317-.127.444.444,0,0,1,0-.629l8.638-7.562a.481.481,0,0,1,.306-.135h18.074a.439.439,0,0,0,.443-.443v-14.089a.454.454,0,0,1,.452-.451h7.557l-.008,0a.45.45,0,0,1,.443.452v15.529a.479.479,0,0,1-.119.309l-6.868,7.007a.421.421,0,0,1-.312.135Zm-96.476-1.615a4.6,4.6,0,0,1-.891-2.973,5.084,5.084,0,0,1,1.116-3.468,4.187,4.187,0,0,1,3.349-1.354,6.6,6.6,0,0,1,1.9.266l-.241,1.587a4.778,4.778,0,0,0-1.738-.316,2.245,2.245,0,0,0-1.881.844,3.425,3.425,0,0,0-.617,2.153q0,3.01,2.6,3.013a3.8,3.8,0,0,0,1.69-.372v-.009l.27,1.524a6.57,6.57,0,0,1-2.324.408A3.921,3.921,0,0,1-15706.75,11912.823Zm-24.8,1.184v-8.883q1.745-.072,2.874-.071v0q4.518,0,4.521,4.358a4.443,4.443,0,0,1-1.366,3.472,5.073,5.073,0,0,1-3.547,1.188Q-15729.665,11914.074-15731.547,11914.007Zm1.714-7.47v6.009a6.386,6.386,0,0,0,.942.063,2.819,2.819,0,0,0,2.07-.74,3.109,3.109,0,0,0,.819-2.323q0-3.047-2.787-3.049C-15729.2,11906.5-15729.552,11906.509-15729.833,11906.537Zm41.66,7.47v-8.887q1.746-.072,2.874-.071v0q4.525,0,4.521,4.358a4.46,4.46,0,0,1-1.365,3.476,5.092,5.092,0,0,1-3.547,1.184C-15686.09,11914.07-15686.918,11914.047-15688.173,11914.007Zm1.715-7.474v6.009a6.371,6.371,0,0,0,.941.063,2.818,2.818,0,0,0,2.07-.74,3.1,3.1,0,0,0,.819-2.323q0-3.047-2.782-3.049C-15685.829,11906.493-15686.178,11906.5-15686.458,11906.533Zm16.313,7.489,1.361-8.91h2.015l1.509,4.6c.2.646.364,1.267.49,1.876h.024c.186-.787.348-1.4.482-1.853l1.524-4.627h2l0,0,1.39,8.911h-1.781l-.653-4.307c-.091-.646-.187-1.39-.277-2.232h-.027c-.175.851-.341,1.527-.5,2.038l-1.444,4.5h-1.663l-1.374-4.185a20.845,20.845,0,0,1-.577-2.354h-.028c-.067.839-.146,1.635-.237,2.383l-.515,4.16Zm-41.285,0-.605-1.829h-3.381l-.625,1.829h-1.727l3.076-8.91h2.026l3.14,8.91Zm-2.672-5.835-.91,2.648h2.541l-.91-2.648c-.154-.467-.277-.879-.356-1.231h-.012C-15713.892,11907.483-15714.011,11907.895-15714.1,11908.188Zm-21.935,5.835-.605-1.829h-3.381l-.626,1.829h-1.726l3.076-8.91h2.026l3.14,8.91Zm-2.672-5.835-.911,2.648h2.542l-.911-2.648c-.154-.467-.276-.879-.355-1.231h-.013C-15738.5,11907.483-15738.617,11907.895-15738.708,11908.188Zm-11.928,5.835v-1.322l3.215-5.229c.249-.38.443-.665.577-.843-.423.016-.97.023-1.627.023h-2.062v-1.539h5.76v1.385l-3.392,5.345a6.974,6.974,0,0,1-.412.617c.154-.016.8-.023,1.932-.023h1.928v1.587Zm96.179,0v-3.143l-2.783-5.769h1.881l1.172,2.562q.333.743.605,1.477h.023c.127-.345.364-.895.717-1.65l1.124-2.388h1.821l-2.843,5.756v3.155Zm-23.34,0v-8.911h4.854v1.438h-3.136v2.193h2.973v1.4h-2.973v2.406h3.136v1.477Zm-14.865,0-.605-1.829h-3.376l-.626,1.829H-15699l3.075-8.911h2.027l3.139,8.911Zm-2.668-5.835-.91,2.648h2.537l-.91-2.648c-.154-.467-.273-.879-.356-1.231h-.012C-15695.124,11907.479-15695.238,11907.891-15695.33,11908.184Zm-51.319,4.252h0Zm96.753-7.328h0Zm-111.079-8.376-.02-2.193h.28c1.109-.012,1.651-.542,1.644-1.556l-.071-8.455,2.236-.021.067,8.024c0,.3,0,.563-.012.768a4.128,4.128,0,0,1-.642,2.075,3.079,3.079,0,0,1-2.13,1.294c-.261.02-.617.063-1.053.063Zm18.827-2.431,2.232-.02.021,2.276-2.233.02Zm3.171-.023,2.236-.021.021,2.276-2.237.021Zm12.85-.119,2.232-.012v0l.021,2.265-2.233.02Zm3.171-.023,2.236-.016v0l.021,2.268-2.237.021Zm39.871,1.932a5.286,5.286,0,0,1-1.754-.226,3.021,3.021,0,0,1-1.864-2.768,2.942,2.942,0,0,1,2.676-2.917l3.35-.023-.028-2.665c-.008-.926-.4-1.369-1.227-1.365l-3.329.027-.021-2.232,3.25-.027a3.31,3.31,0,0,1,3.583,3.364l.027,2.874h.115l2.66-.02-.023-2.878a3.307,3.307,0,0,1,3.511-3.428h-.008l2.76-.028.059,6.754a3.313,3.313,0,0,1-3.5,3.559l-2.764.02-.012-1.762-2.672.016h-.106l-5.237.052c-.566,0-.848.254-.848.725s.289.688.852.685l1.951-.016.02,2.269-1.294.012Zm9.659-8.67.04,4.418h.562c.823,0,1.216-.463,1.208-1.381l-.04-4.418h-.562C-15673.047,11886.023-15673.435,11886.479-15673.427,11887.4Zm-7.221,6.374,2.253-.02.02,2.275-2.252.021Zm21.575-.1h.28c1.1-.012,1.651-.542,1.64-1.56l-.075-8.451,2.24-.02.056,6.274h.11l2.645-.021-.056-6.274,2.237-.02.075,8.511h0l-4.886.036h-.106c-.095,2.882-1.793,3.7-3.844,3.721l-.293,0Zm6.927-.134,2.233-.021.02,2.28-2.232.016Zm-81.828-.717-2.672.023h-.111l-6.816.063h-.131l-2.236.02-.048-5.771c-1.611.559-2.818,2.712-3.373,5.8l-2.292.02c.424-5.226,3.488-8.258,7.874-8.574l.056,6.278h.13l4.585-.04-.056-6.274,2.232-.02.056,6.274h.11l2.673-.027-.024-2.87a3.289,3.289,0,0,1,3.5-3.429l2.763-.027.056,6.274h.095l4.624-.04-.063-6.274,2.236-.02v0l0,0h0l.075,8.511-6.856.056h-.095l-.436,0a3.419,3.419,0,0,1-3.163,1.794l-2.68.023Zm3.408-6.3c-.827.008-1.224.463-1.216,1.381l.04,4.418.563-.008c.827,0,1.219-.463,1.207-1.382l-.031-4.418Zm-42.932,4.409,4.94-.043-.012-1.354a2.441,2.441,0,0,0-.713-1.967,2.722,2.722,0,0,0-.981-.539,6.9,6.9,0,0,0-1.71-.174l-.016-2.236.729-.008a5.181,5.181,0,0,1,3.071.875,4.539,4.539,0,0,1,1.873,4.006v.008l.031,3.606-7.192.06Zm8.8-9.979,2.236-.02.1,12.137-2.236.021Zm45.635,9.513,4.944-.044-.016-1.35a2.425,2.425,0,0,0-.713-1.968,2.689,2.689,0,0,0-.978-.534,6.724,6.724,0,0,0-1.71-.178l-.021-2.236.729-.009a5.186,5.186,0,0,1,3.072.875,4.542,4.542,0,0,1,1.872,4.007l0,0,.032,3.605-7.2.063Zm8.8-9.979,2.24-.02.084,9.9h.154l9.654-.092-.012-.937c-.008-.919-.423-1.362-1.247-1.354l-5.862.044-.027-3.871,4.849-3.706,3.7-.031-6.267,4.813v.522l3.548-.027a3.328,3.328,0,0,1,3.563,3.369l.027,3.4-11.911.1h-.146l-2.237.02Zm15.993-.139,2.232-.02.106,12.137-2.236.02Zm26.522-.218,2.24-.02.084,9.9.154-.008v.008l2.608-.027-.056-6.274,2.237-.021v0l.07,8.511-4.841.048h-.154l-2.236.02Zm88.555,7.363-5.341-5.345a.433.433,0,0,1,0-.625l5.341-5.353a.457.457,0,0,1,.633,0l5.341,5.345v0a.443.443,0,0,1,.135.313.45.45,0,0,1-.135.316l-5.341,5.345a.463.463,0,0,1-.317.124A.455.455,0,0,1-15579.191,11887.488Zm-179.963-4.351-.021-2.232,2.233-.021.02,2.237-2.236.02Zm9.936-.087-.016-2.233,2.269-.02.02,2.232Zm0,0h0Zm3.183-2.261,2.233-.02.02,2.236-2.241.02Zm83.294-.717,2.232-.012.02,2.232-2.232.021Zm-31.863-1.773h.491a1.188,1.188,0,0,1-.119-.49,1.453,1.453,0,0,1,1.488-1.517l.642-.008,0,.867-.748,0c-.36,0-.546.214-.542.625,0,.337.209.507.605.5l1.068-.008h0l.008.863-2.894.027Z" transform="translate(15773.495 -11856.999)" fill="#fff"/>
    </g>
  </g>
</svg>
