<svg id="Group_99140" data-name="Group 99140" xmlns="http://www.w3.org/2000/svg" xmlns:xlink="http://www.w3.org/1999/xlink" width="17.746" height="18.312" viewBox="0 0 17.746 18.312">
  <defs>
    <linearGradient id="linear-gradient" x1="0.5" x2="0.5" y2="1" gradientUnits="objectBoundingBox">
      <stop offset="0" stop-color="#c6a05a"/>
      <stop offset="1" stop-color="#4c241d"/>
    </linearGradient>
    <clipPath id="clip-path">
      <rect id="Rectangle_53524" data-name="Rectangle 53524" width="17.746" height="18.312" fill="url(#linear-gradient)"/>
    </clipPath>
  </defs>
  <g id="Group_97738" data-name="Group 97738" clip-path="url(#clip-path)">
    <path id="Path_124512" data-name="Path 124512" d="M105.217,6.806c.113.031.153.071.167.174.061.446.126.892.19,1.337.068.473.117.949.212,1.417a4.234,4.234,0,0,0,.32,1.056,6.034,6.034,0,0,0,1.285,1.56,2.121,2.121,0,0,0,1.036.611,2.269,2.269,0,0,0,2.008-.326,11.59,11.59,0,0,0,1.378-1.443,1.808,1.808,0,0,0,.409-.755c.15-.7.226-1.412.362-2.114.01-.051.02-.1.031-.155a.5.5,0,0,0,.011-.14l.088-.62v0l.077-.422a.186.186,0,0,1,.167-.18.791.791,0,0,0,.35-.178,1.608,1.608,0,0,0,.5-1.6c-.082-.441-.3-.65-.667-.665-.157-.006-.174-.068-.188-.2-.053-.514-.107-1.028-.194-1.536a2.608,2.608,0,0,0-.829-1.54,4.153,4.153,0,0,0-3.668-1,4.11,4.11,0,0,0-1.666.7,3.234,3.234,0,0,0-1.305,2.477c-.04.362-.081.723-.121,1.082-.5.066-.763.261-.82.664a1.911,1.911,0,0,0,.2,1.252,1.087,1.087,0,0,0,.666.552m7.749-2.029c0-.134.079-.153.183-.143a.425.425,0,0,1,.379.359,1.452,1.452,0,0,1-.345,1.381,1.692,1.692,0,0,1-.289.18c.026-.627.052-1.2.072-1.776m-7.27-.949a8.413,8.413,0,0,1,2.7-.613,9.5,9.5,0,0,1,3.874.512c.324.114.324.114.345.465,0,.046.009.093.01.139a11.357,11.357,0,0,1-.21,2.733c-.009.042-.016.079-.022.114v0A5.553,5.553,0,0,1,110.8,9.277l-.008.006-.085.074a3.037,3.037,0,0,1-.36.228l-.569.231a2.6,2.6,0,0,1-.4.077,2.849,2.849,0,0,1-1.639-.322l0,0-.061-.036h0c-.466-.467-.941-.925-1.389-1.408a1.71,1.71,0,0,1-.386-.634,6.131,6.131,0,0,1-.257-1.259c-.061-.733-.07-1.471-.088-2.207a.269.269,0,0,1,.141-.2M104.69,4.9a.376.376,0,0,1,.123-.171,1.547,1.547,0,0,1,.31-.089,1.4,1.4,0,0,1,.059.23c.037.436.068.872.1,1.308.008.111.012.223.02.36a.777.777,0,0,1-.529-.456A1.3,1.3,0,0,1,104.69,4.9" transform="translate(-100.163 0)" fill="url(#linear-gradient)"/>
    <path id="Path_124514" data-name="Path 124514" d="M30.093,277.035a13.037,13.037,0,0,0-.53-3.068,2.044,2.044,0,0,0-.664-1.144,9.2,9.2,0,0,0-1.318-.784c-.953-.451-1.927-.859-2.863-1.273-.339.432-.663.88-1.024,1.3a3.086,3.086,0,0,1-2.029,1.258,2.683,2.683,0,0,1-1.929-.435A7.389,7.389,0,0,1,18.2,271.27c-.123-.166-.227-.347-.342-.525-.318.15-.62.3-.925.435-.887.405-1.782.794-2.66,1.217a1.849,1.849,0,0,0-.909.762,9.778,9.778,0,0,0-.466,1.128c-.11.305.026.5.349.553l.283.041a7.906,7.906,0,0,1,1.22.173,35.3,35.3,0,0,1,3.571.937l.011,0,.015.006q.4.145.8.306l.152.061c.561.226,1.119.459,1.686.667l.2.073a17.6,17.6,0,0,0,3.494.927,11.578,11.578,0,0,0,3.576-.143,7.9,7.9,0,0,0,1.6-.488.318.318,0,0,0,.234-.368" transform="translate(-12.349 -259.94)" fill="url(#linear-gradient)"/>
  </g>
</svg>
