<svg xmlns="http://www.w3.org/2000/svg" xmlns:xlink="http://www.w3.org/1999/xlink" width="47" height="47" viewBox="0 0 47 47">
  <defs>
    <clipPath id="clip-path">
      <rect id="Rectangle_53524" data-name="Rectangle 53524" width="27.051" height="27.914" fill="#5ca898"/>
    </clipPath>
  </defs>
  <g id="Group_95579" data-name="Group 95579" transform="translate(-1236 -5432.489)">
    <circle id="Ellipse_3027" data-name="Ellipse 3027" cx="23.5" cy="23.5" r="23.5" transform="translate(1236 5432.489)" fill="#5ca898" opacity="0.1"/>
    <g id="Group_99340" data-name="Group 99340" transform="translate(1245.975 5442.032)">
      <g id="Group_97738" data-name="Group 97738" clip-path="url(#clip-path)">
        <path id="Path_124512" data-name="Path 124512" d="M105.684,10.376c.172.047.233.108.255.265.093.68.192,1.36.289,2.039.1.721.178,1.447.323,2.16a6.455,6.455,0,0,0,.487,1.61A9.2,9.2,0,0,0,109,18.827a3.234,3.234,0,0,0,1.579.931,3.459,3.459,0,0,0,3.061-.5,17.667,17.667,0,0,0,2.1-2.2,2.756,2.756,0,0,0,.624-1.15c.228-1.065.345-2.153.552-3.222.015-.078.031-.158.047-.236a.764.764,0,0,0,.016-.213l.134-.945v0q.058-.324.117-.644a.283.283,0,0,1,.254-.274,1.205,1.205,0,0,0,.533-.271,2.451,2.451,0,0,0,.765-2.439c-.125-.672-.456-.99-1.017-1.014-.24-.01-.265-.1-.287-.308-.081-.783-.163-1.567-.3-2.342a3.975,3.975,0,0,0-1.264-2.348A6.33,6.33,0,0,0,110.331.12a6.265,6.265,0,0,0-2.539,1.066,4.929,4.929,0,0,0-1.99,3.776c-.06.551-.123,1.1-.184,1.65-.763.1-1.163.4-1.25,1.013a2.912,2.912,0,0,0,.3,1.909,1.656,1.656,0,0,0,1.016.841M117.5,7.283c.007-.205.12-.234.279-.218a.649.649,0,0,1,.577.547,2.213,2.213,0,0,1-.526,2.1,2.579,2.579,0,0,1-.44.274c.04-.956.08-1.832.11-2.708M106.414,5.836a12.825,12.825,0,0,1,4.111-.934,14.484,14.484,0,0,1,5.906.781c.495.173.495.174.526.709,0,.071.013.141.015.212a17.31,17.31,0,0,1-.319,4.167c-.014.063-.025.121-.033.174v.007a8.465,8.465,0,0,1-2.425,3.191l-.012.01-.13.113a4.631,4.631,0,0,1-.549.347l-.868.352a3.955,3.955,0,0,1-.6.117,4.342,4.342,0,0,1-2.5-.492l0,0c-.052-.029-.084-.049-.093-.054l0,0c-.71-.711-1.434-1.41-2.117-2.147a2.607,2.607,0,0,1-.588-.967,9.345,9.345,0,0,1-.392-1.919c-.093-1.118-.107-2.242-.134-3.364a.41.41,0,0,1,.215-.3m-1.532,1.633a.573.573,0,0,1,.187-.261,2.357,2.357,0,0,1,.472-.135,2.139,2.139,0,0,1,.089.351c.056.664.1,1.329.153,1.994.013.17.019.339.03.549a1.185,1.185,0,0,1-.806-.7,1.982,1.982,0,0,1-.125-1.8" transform="translate(-97.979 0)" fill="#5ca898"/>
        <path id="Path_124514" data-name="Path 124514" d="M39.128,280.333a19.874,19.874,0,0,0-.807-4.676,3.115,3.115,0,0,0-1.012-1.744,14.011,14.011,0,0,0-2.009-1.2c-1.453-.687-2.937-1.31-4.365-1.94-.517.659-1.01,1.342-1.561,1.976a4.7,4.7,0,0,1-3.092,1.917,4.089,4.089,0,0,1-2.941-.664A11.262,11.262,0,0,1,21,271.546c-.187-.254-.346-.529-.521-.8-.485.229-.945.451-1.41.663-1.352.617-2.716,1.21-4.055,1.855a2.819,2.819,0,0,0-1.385,1.161,14.9,14.9,0,0,0-.711,1.72c-.168.465.04.77.532.843l.432.063a12.042,12.042,0,0,1,1.86.264,53.788,53.788,0,0,1,5.444,1.428l.016,0,.023.009q.613.222,1.22.466l.232.094c.855.345,1.706.7,2.57,1.017l.3.111a26.831,26.831,0,0,0,5.327,1.413,17.647,17.647,0,0,0,5.452-.218,12.04,12.04,0,0,0,2.44-.745.484.484,0,0,0,.357-.56" transform="translate(-12.08 -254.274)" fill="#5ca898"/>
      </g>
    </g>
  </g>
</svg>
