<svg xmlns="http://www.w3.org/2000/svg" width="55.002" height="41.443" viewBox="0 0 55.002 41.443">
  <path id="Vector" d="M33.568,41.443h0l-1.33-5.365,1.3-.545,1.478-.614a6.214,6.214,0,0,0,1.275-.663c.164-.1.333-.205.507-.306.21-.141.434-.266.671-.4a5.631,5.631,0,0,0,1.287-.884c.226-.211.469-.4.726-.6A7.324,7.324,0,0,0,40.653,31a9.633,9.633,0,0,1,.635-.725A5.776,5.776,0,0,0,42.3,28.955l.035-.054a11.488,11.488,0,0,0,1.251-2.282,10.08,10.08,0,0,0,.7-1.882l-.13.019a11.263,11.263,0,0,1-1.653.161A12.238,12.238,0,0,1,35.918,23a12.4,12.4,0,0,1-4.553-5.17,12.554,12.554,0,0,1,1.54-13.2,12.262,12.262,0,0,1,18.422-.872,12.476,12.476,0,0,1,3.238,6.1l.071-.017.068.465c.042.289.129.891.173,1.492a34.307,34.307,0,0,1,.077,4.836A33.708,33.708,0,0,1,53.9,23.374a30.885,30.885,0,0,1-1.283,3.7l-.181.388a20.06,20.06,0,0,1-1.743,3.208A19.5,19.5,0,0,1,48.2,33.886a11.677,11.677,0,0,1-1.955,1.845c-.324.261-.63.508-.924.772a13.574,13.574,0,0,1-2.032,1.343c-.335.193-.652.376-.959.572a9.473,9.473,0,0,1-1.962.942c-.3.116-.582.225-.856.348-.213.084-.422.17-.624.253a9.6,9.6,0,0,1-1.794.611c-.415.106-.807.2-1.154.29h0l-.733.183-1.637.4Zm-30.161,0h0l-1.33-5.365,1.3-.545,1.478-.614a6.216,6.216,0,0,0,1.275-.663c.164-.1.333-.206.507-.307.21-.141.434-.266.671-.4a5.624,5.624,0,0,0,1.287-.884c.226-.211.468-.4.725-.6A7.327,7.327,0,0,0,10.492,31c.194-.254.418-.493.635-.724a5.779,5.779,0,0,0,1.013-1.316l.037-.057a11.456,11.456,0,0,0,1.249-2.279,10.082,10.082,0,0,0,.7-1.882l-.128.019a11.269,11.269,0,0,1-1.654.161A12.238,12.238,0,0,1,5.757,23,12.4,12.4,0,0,1,1.2,17.826a12.554,12.554,0,0,1,1.54-13.2,12.262,12.262,0,0,1,18.422-.872A12.476,12.476,0,0,1,24.4,9.85l.071-.017.068.465c.042.289.129.891.173,1.492a34.308,34.308,0,0,1,.077,4.836,33.728,33.728,0,0,1-1.053,6.747,30.954,30.954,0,0,1-1.283,3.7l-.181.388,0,0a20.014,20.014,0,0,1-1.742,3.205,19.489,19.489,0,0,1-2.492,3.217,11.707,11.707,0,0,1-1.952,1.84c-.325.262-.632.509-.927.774a13.58,13.58,0,0,1-2.031,1.343c-.336.193-.652.376-.96.573a9.348,9.348,0,0,1-1.949.938c-.3.118-.592.229-.87.355-.213.084-.422.17-.624.253a9.606,9.606,0,0,1-1.794.611c-.418.107-.812.2-1.16.291l-.73.183-1.637.4Z" transform="translate(55.002 41.443) rotate(180)" fill="#5ca898"/>
</svg>
