<svg id="Group_97741" data-name="Group 97741" xmlns="http://www.w3.org/2000/svg" xmlns:xlink="http://www.w3.org/1999/xlink" width="21.727" height="22.42" viewBox="0 0 21.727 22.42">
  <defs>
    <clipPath id="clip-path">
      <rect id="Rectangle_53524" data-name="Rectangle 53524" width="21.727" height="22.42" fill="#fff"/>
    </clipPath>
  </defs>
  <g id="Group_97738" data-name="Group 97738" clip-path="url(#clip-path)">
    <path id="Path_124512" data-name="Path 124512" d="M105.417,8.333c.138.038.187.086.2.213.075.546.154,1.092.232,1.637.084.579.143,1.162.259,1.735a5.184,5.184,0,0,0,.391,1.293,7.388,7.388,0,0,0,1.574,1.91,2.6,2.6,0,0,0,1.268.748,2.778,2.778,0,0,0,2.459-.4,14.19,14.19,0,0,0,1.687-1.766,2.214,2.214,0,0,0,.5-.924c.183-.855.277-1.729.444-2.588.012-.063.025-.127.038-.19a.614.614,0,0,0,.013-.171l.107-.759v0q.047-.26.094-.517a.227.227,0,0,1,.2-.22.968.968,0,0,0,.428-.217,1.969,1.969,0,0,0,.615-1.959c-.1-.54-.366-.8-.816-.814-.193-.008-.213-.084-.23-.248-.065-.629-.131-1.259-.237-1.881a3.193,3.193,0,0,0-1.015-1.886A5.084,5.084,0,0,0,109.149.1a5.032,5.032,0,0,0-2.039.857,3.959,3.959,0,0,0-1.6,3.033c-.048.443-.1.885-.148,1.325-.613.081-.934.319-1,.814a2.339,2.339,0,0,0,.241,1.533,1.33,1.33,0,0,0,.816.676M114.9,5.85c.005-.165.1-.188.224-.175a.521.521,0,0,1,.464.439A1.777,1.777,0,0,1,115.17,7.8a2.072,2.072,0,0,1-.353.22c.032-.768.064-1.471.088-2.175M106,4.687a10.3,10.3,0,0,1,3.3-.751,11.633,11.633,0,0,1,4.743.627c.4.139.4.14.422.569,0,.057.011.113.012.171a13.9,13.9,0,0,1-.257,3.347c-.011.051-.02.1-.027.14V8.8a6.8,6.8,0,0,1-1.948,2.563l-.009.008-.1.09a3.719,3.719,0,0,1-.441.279l-.7.283a3.177,3.177,0,0,1-.485.094,3.488,3.488,0,0,1-2.007-.395l0,0-.075-.043h0c-.57-.571-1.152-1.133-1.7-1.724a2.094,2.094,0,0,1-.472-.776,7.505,7.505,0,0,1-.315-1.541c-.075-.9-.086-1.8-.108-2.7a.33.33,0,0,1,.173-.24M104.772,6a.46.46,0,0,1,.15-.21,1.893,1.893,0,0,1,.379-.108,1.717,1.717,0,0,1,.072.282c.045.534.084,1.068.123,1.6.01.136.015.273.024.441a.952.952,0,0,1-.647-.558,1.591,1.591,0,0,1-.1-1.447" transform="translate(-99.229 0)" fill="#fff"/>
    <path id="Path_124514" data-name="Path 124514" d="M33.959,278.446a15.962,15.962,0,0,0-.648-3.756,2.5,2.5,0,0,0-.813-1.4,11.254,11.254,0,0,0-1.613-.96c-1.167-.552-2.359-1.052-3.506-1.558-.415.529-.812,1.078-1.254,1.587a3.778,3.778,0,0,1-2.484,1.54,3.285,3.285,0,0,1-2.362-.533,9.045,9.045,0,0,1-1.879-1.977c-.15-.2-.278-.425-.418-.643-.39.184-.759.362-1.133.533-1.086.5-2.182.972-3.257,1.49a2.264,2.264,0,0,0-1.113.933,11.969,11.969,0,0,0-.571,1.381c-.135.374.032.618.428.677l.347.05a9.673,9.673,0,0,1,1.494.212,43.209,43.209,0,0,1,4.373,1.147l.013,0,.018.007q.493.178.98.374l.186.075c.687.277,1.37.562,2.064.816l.244.089a21.549,21.549,0,0,0,4.278,1.135,14.174,14.174,0,0,0,4.379-.175,9.67,9.67,0,0,0,1.96-.6.389.389,0,0,0,.287-.45" transform="translate(-12.234 -257.516)" fill="#fff"/>
  </g>
</svg>
