<svg xmlns="http://www.w3.org/2000/svg" xmlns:xlink="http://www.w3.org/1999/xlink" width="57" height="57" viewBox="0 0 57 57">
  <defs>
    <clipPath id="clip-path">
      <rect id="Rectangle_52786" data-name="Rectangle 52786" width="55.491" height="51.876" fill="#5ca898"/>
    </clipPath>
  </defs>
  <g id="Group_99204" data-name="Group 99204" transform="translate(-1539.59 -3717)">
    <rect id="Vector" width="57" height="57" transform="translate(1539.59 3717)" fill="#e2e4e4" opacity="0"/>
    <g id="Group_99094" data-name="Group 99094" transform="translate(1540.344 3720.563)">
      <g id="Group_93888" data-name="Group 93888" transform="translate(0 0)" clip-path="url(#clip-path)">
        <path id="Path_123266" data-name="Path 123266" d="M53.88,21.714a1.613,1.613,0,0,0-1.612,1.611V39.772a2.19,2.19,0,0,1-2.185,2.186H30.239a1.61,1.61,0,0,0-.448,0H5.408a2.191,2.191,0,0,1-2.186-2.186V11.994A2.191,2.191,0,0,1,5.407,9.809H31.683a1.611,1.611,0,0,0,0-3.223H5.407A5.422,5.422,0,0,0,0,11.993v27.78a5.422,5.422,0,0,0,5.407,5.408H22.514l-4.126,6.443h-3.7a1.611,1.611,0,1,0,0,3.223H40.8a1.611,1.611,0,0,0,0-3.223H37.1l-4.125-6.443h17.11a5.422,5.422,0,0,0,5.407-5.408V23.325a1.613,1.613,0,0,0-1.612-1.611M22.215,51.624l4.125-6.443h2.808l4.126,6.443Z" transform="translate(0 -2.971)" fill="#5ca898"/>
        <path id="Path_123267" data-name="Path 123267" d="M43.019,20.684a6.454,6.454,0,0,0-4.71,10.877,8.876,8.876,0,0,0-4.18,7.721v2.909A1.613,1.613,0,0,0,35.74,43.8H50.3a1.613,1.613,0,0,0,1.611-1.61v-2.9c0-.136,0-.273,0-.409a8.886,8.886,0,0,0-4.176-7.329,6.454,6.454,0,0,0-4.713-10.873m0,12.929a5.674,5.674,0,0,1,5.667,5.667v1.3H37.352v-1.3a5.674,5.674,0,0,1,5.667-5.667m-.2-3.412c-.237.005-.469.028-.7.052a3.238,3.238,0,1,1,1.812,0,8.871,8.871,0,0,0-1.112-.051" transform="translate(-15.395 -9.331)" fill="#5ca898"/>
        <path id="Path_123268" data-name="Path 123268" d="M79.625,0h-13.4a3.968,3.968,0,0,0-3.956,3.956v10.11a3.968,3.968,0,0,0,3.957,3.956h.464v2.494a1.619,1.619,0,0,0,1.613,1.611,1.6,1.6,0,0,0,1.137-.472l3.633-3.633h6.549a3.967,3.967,0,0,0,3.956-3.957V3.956A3.967,3.967,0,0,0,79.625,0M68.3,14.8H66.23a.737.737,0,0,1-.735-.734V3.957a.737.737,0,0,1,.735-.734H79.624a.737.737,0,0,1,.735.734V14.065a.737.737,0,0,1-.734.735H72.41a1.621,1.621,0,0,0-1.14.472l-1.355,1.355v-.215A1.613,1.613,0,0,0,68.3,14.8" transform="translate(-28.091 0)" fill="#5ca898"/>
      </g>
    </g>
  </g>
</svg>
