<svg xmlns="http://www.w3.org/2000/svg" width="57" height="57" viewBox="0 0 57 57">
  <g id="Group_99205" data-name="Group 99205" transform="translate(-945.272 -3967.218)">
    <rect id="Vector" width="57" height="57" transform="translate(945.272 3967.218)" fill="#e2e4e4" opacity="0"/>
    <g id="Layer_10" transform="translate(946.698 3967.727)">
      <path id="Path_123564" data-name="Path 123564" d="M9.413,12.535a1.624,1.624,0,1,0,0,3.249H26.83a1.624,1.624,0,1,0,0-3.249Z" transform="translate(5.002 9.203)" fill="#5ca898"/>
      <path id="Path_123565" data-name="Path 123565" d="M17.244,17.644H9.413a1.624,1.624,0,0,0,0,3.249h7.831a1.624,1.624,0,0,0,0-3.249Z" transform="translate(5.002 13.315)" fill="#5ca898"/>
      <path id="Path_123566" data-name="Path 123566" d="M22.006,51.634H9.643A4.832,4.832,0,0,1,4.824,46.8V13.9A4.832,4.832,0,0,1,9.643,9.059H13v.408a4.3,4.3,0,0,0,4.3,4.3H32.817a4.3,4.3,0,0,0,4.3-4.3V9.059h3.339A4.775,4.775,0,0,1,45.27,13.9v9.259a1.624,1.624,0,1,0,3.249,0V13.9a8.086,8.086,0,0,0-8.067-8.085H37.112V5.4a4.3,4.3,0,0,0-4.3-4.3H17.294A4.3,4.3,0,0,0,13,5.4v.415H9.643A8.087,8.087,0,0,0,1.574,13.9V46.8a8.087,8.087,0,0,0,8.069,8.085H22.006a1.624,1.624,0,0,0,0-3.249ZM16.249,5.4A1.048,1.048,0,0,1,17.3,4.349H32.817A1.048,1.048,0,0,1,33.864,5.4v4.07a1.048,1.048,0,0,1-1.047,1.047H17.3a1.048,1.048,0,0,1-1.047-1.047Z" transform="translate(0 0)" fill="#5ca898"/>
      <path id="Path_123567" data-name="Path 123567" d="M40.369,18.1a6.031,6.031,0,0,0-8.331,0l-14.4,14.4a3.134,3.134,0,0,0-.877,1.7l-.79,4.673A3.147,3.147,0,0,0,19.594,42.5l4.671-.789a3.134,3.134,0,0,0,1.7-.877l14.4-14.4a5.9,5.9,0,0,0,0-8.329ZM23.725,38.508l-4.55.908.762-4.615L30.259,24.479,34,28.217ZM38.07,24.134l-1.78,1.783-3.736-3.736L34.336,20.4a2.64,2.64,0,1,1,3.734,3.734Z" transform="translate(11.551 12.34)" fill="#5ca898"/>
    </g>
  </g>
</svg>
