<svg xmlns="http://www.w3.org/2000/svg" width="290.859" height="219.158" viewBox="0 0 290.859 219.158">
  <g id="Group_94535" data-name="Group 94535" opacity="0.065">
    <path id="Vector" d="M177.51,219.158v0l-7.032-28.371,6.874-2.883,7.814-3.249a32.861,32.861,0,0,0,6.743-3.5c.865-.534,1.759-1.086,2.682-1.621,1.11-.747,2.295-1.406,3.55-2.1a29.778,29.778,0,0,0,6.8-4.674c1.194-1.117,2.478-2.126,3.837-3.2a38.729,38.729,0,0,0,6.2-5.648,50.937,50.937,0,0,1,3.359-3.832,30.543,30.543,0,0,0,5.356-6.958l.188-.288a60.752,60.752,0,0,0,6.613-12.069,53.305,53.305,0,0,0,3.682-9.953l-.685.1a59.561,59.561,0,0,1-8.74.849A64.714,64.714,0,0,1,189.942,121.6a65.582,65.582,0,0,1-24.076-27.338,66.389,66.389,0,0,1,8.142-69.806,64.842,64.842,0,0,1,97.417-4.61,65.974,65.974,0,0,1,17.124,32.239l.378-.088.361,2.46c.221,1.53.682,4.712.914,7.892a181.425,181.425,0,0,1,.406,25.575,178.25,178.25,0,0,1-5.568,35.678,163.319,163.319,0,0,1-6.785,19.558q-.482,1.026-.96,2.053c-2.666,5.715-5.421,11.623-9.219,16.965-3.692,6.305-8.517,11.9-13.181,17.011-2.994,3.833-6.726,6.843-10.336,9.754-1.714,1.382-3.333,2.688-4.887,4.082a71.782,71.782,0,0,1-10.748,7.1c-1.773,1.022-3.447,1.986-5.072,3.026a50.092,50.092,0,0,1-10.377,4.982c-1.583.611-3.079,1.188-4.528,1.841-1.129.443-2.232.9-3.3,1.336a50.787,50.787,0,0,1-9.489,3.232c-2.193.56-4.27,1.076-6.1,1.532l-.014,0c-1.381.343-2.685.668-3.874.969l-8.654,2.106Zm-159.5,0v0l-7.032-28.371,6.874-2.883,7.816-3.249a32.87,32.87,0,0,0,6.74-3.5c.867-.536,1.762-1.088,2.684-1.621,1.109-.746,2.294-1.406,3.549-2.1a29.74,29.74,0,0,0,6.8-4.674c1.194-1.117,2.477-2.125,3.835-3.194a38.744,38.744,0,0,0,6.2-5.65c1.027-1.343,2.211-2.607,3.356-3.828a30.56,30.56,0,0,0,5.359-6.961l.2-.3A60.582,60.582,0,0,0,71,140.761a53.314,53.314,0,0,0,3.682-9.953l-.678.1a59.592,59.592,0,0,1-8.748.85A64.714,64.714,0,0,1,30.446,121.6,65.582,65.582,0,0,1,6.37,94.266,66.389,66.389,0,0,1,14.512,24.46a64.842,64.842,0,0,1,97.417-4.61,65.975,65.975,0,0,1,17.124,32.239L129.43,52l.361,2.46c.222,1.531.682,4.714.914,7.892a181.421,181.421,0,0,1,.406,25.575,178.358,178.358,0,0,1-5.567,35.678,163.686,163.686,0,0,1-6.786,19.558q-.481,1.024-.958,2.05l-.008.018c-2.662,5.709-5.415,11.612-9.212,16.95-3.694,6.31-8.518,11.9-13.179,17.011-2.99,3.819-6.718,6.823-10.324,9.729-1.719,1.386-3.343,2.694-4.9,4.091a71.813,71.813,0,0,1-10.741,7.1c-1.774,1.023-3.45,1.989-5.078,3.03A49.435,49.435,0,0,1,54.051,208.1c-1.612.623-3.133,1.21-4.6,1.879-1.127.442-2.232.9-3.3,1.336a50.8,50.8,0,0,1-9.487,3.231c-2.209.564-4.294,1.082-6.133,1.539-1.378.343-2.679.666-3.859.965l-8.654,2.106Z" fill="#484349"/>
  </g>
</svg>
