<svg xmlns="http://www.w3.org/2000/svg" width="56.924" height="56.924" viewBox="0 0 56.924 56.924">
  <path id="bullseye-arrow-3" d="M56.26,22.271A28.471,28.471,0,1,1,28.462,0a29.985,29.985,0,0,1,6.19.664,1.191,1.191,0,0,1-.522,2.324,26.772,26.772,0,0,0-5.669-.617,26.09,26.09,0,1,0,26.09,26.09,26.6,26.6,0,0,0-.617-5.669,1.191,1.191,0,1,1,2.324-.522ZM31.782,12.191a1.186,1.186,0,0,0,.474-2.324,18.392,18.392,0,0,0-3.795-.379A18.975,18.975,0,1,0,47.437,28.462a18.392,18.392,0,0,0-.379-3.795,1.186,1.186,0,0,0-2.324.474,17.325,17.325,0,0,1,.332,3.321,16.6,16.6,0,1,1-16.6-16.6A17.325,17.325,0,0,1,31.782,12.191Zm-4.34,9.226a1.185,1.185,0,0,0,1-1.352,1.153,1.153,0,0,0-1.352-1A9.488,9.488,0,1,0,37.831,29.814a1.187,1.187,0,1,0-2.348-.356,7.117,7.117,0,1,1-8.064-8.064Zm10.507-4.127V10.27a5.9,5.9,0,0,1,1.731-4.2L45.42.356a1.18,1.18,0,0,1,2.016.83v8.3h8.3a1.183,1.183,0,0,1,1.091.735,1.165,1.165,0,0,1-.261,1.281l-5.716,5.716a5.9,5.9,0,0,1-4.2,1.731H39.633L29.316,29.268a1.191,1.191,0,0,1-.83.356,1.151,1.151,0,0,1-.83-.356,1.174,1.174,0,0,1,0-1.684L37.973,17.267Zm2.372-.688h6.333a3.554,3.554,0,0,0,2.514-1.044l3.7-3.7H46.251a1.174,1.174,0,0,1-1.186-1.186V4.056l-3.7,3.7a3.554,3.554,0,0,0-1.044,2.514Z" fill="#af7f28" opacity="0.174"/>
</svg>
