<svg xmlns="http://www.w3.org/2000/svg" width="17.832" height="18.899" viewBox="0 0 17.832 18.899">
  <path id="play-circle" d="M43.266,30.17l-11.05-6.052a3.386,3.386,0,0,0-5.047,2.952V39.184a3.357,3.357,0,0,0,1.678,2.925,3.351,3.351,0,0,0,3.36.034l11.067-6.062a3.386,3.386,0,0,0-.009-5.909Zm-.907,4.257L31.292,40.49a1.5,1.5,0,0,1-2.232-1.306V27.07a1.482,1.482,0,0,1,.743-1.294,1.5,1.5,0,0,1,.752-.206,1.528,1.528,0,0,1,.746.2l11.05,6.052a1.5,1.5,0,0,1,.009,2.6Z" transform="translate(45.001 42.578) rotate(-180)" fill="#5ca898"/>
</svg>
