<svg xmlns="http://www.w3.org/2000/svg" width="16.41" height="14.066" viewBox="0 0 16.41 14.066">
  <g id="Group_99451" data-name="Group 99451" transform="translate(-11.252 -12.302)">
    <g id="Group_99168" data-name="Group 99168" transform="translate(11.252 12.302)">
      <path id="menus" d="M3,5.172A1.172,1.172,0,0,1,4.172,4H18.238a1.172,1.172,0,1,1,0,2.344H4.172A1.172,1.172,0,0,1,3,5.172Zm0,5.861A1.172,1.172,0,0,1,4.172,9.861h7.033a1.172,1.172,0,0,1,0,2.344H4.172A1.172,1.172,0,0,1,3,11.033Zm0,5.861a1.172,1.172,0,0,1,1.172-1.172H18.238a1.172,1.172,0,0,1,0,2.344H4.172A1.172,1.172,0,0,1,3,16.894Z" transform="translate(-3 -4)" fill="#7b5435" fill-rule="evenodd"/>
    </g>
  </g>
</svg>
