<svg xmlns="http://www.w3.org/2000/svg" width="57.262" height="62.124" viewBox="0 0 57.262 62.124">
  <g id="Idea" transform="translate(-1.785 -0.6)" opacity="0.17">
    <path id="Path_123721" data-name="Path 123721" d="M25.606,6.542h-.062A18.649,18.649,0,0,0,12.034,38.047,8.821,8.821,0,0,1,14.61,44.1v1.575a3.9,3.9,0,0,0,3.9,3.9h14.13a3.9,3.9,0,0,0,3.9-3.9V44.1a8.822,8.822,0,0,1,2.576-6.055,18.656,18.656,0,0,0-13.5-31.5ZM36.443,35.494a12.492,12.492,0,0,0-3.6,8.6v1.575a.206.206,0,0,1-.205.205H18.505a.206.206,0,0,1-.205-.205V44.1a12.488,12.488,0,0,0-3.6-8.6A14.966,14.966,0,0,1,25.547,10.232a.384.384,0,0,0,.049,0A14.961,14.961,0,0,1,36.443,35.494Z" transform="translate(4.845 5.72)" fill="#af7f28" stroke="#fff" stroke-width="1"/>
    <path id="Path_123722" data-name="Path 123722" d="M18.7,10.718a10.43,10.43,0,0,0-7.628,7.667,1.846,1.846,0,0,0,1.354,2.232,1.8,1.8,0,0,0,.441.053,1.847,1.847,0,0,0,1.791-1.409,6.831,6.831,0,0,1,4.935-4.96,1.846,1.846,0,0,0-.892-3.583Z" transform="translate(9.176 10.054)" fill="#af7f28" stroke="#fff" stroke-width="1"/>
    <path id="Path_123723" data-name="Path 123723" d="M24.562,29.1H14.491a1.846,1.846,0,1,0,0,3.692H24.562a1.846,1.846,0,0,0,0-3.692Z" transform="translate(10.89 29.432)" fill="#af7f28" stroke="#fff" stroke-width="1"/>
    <path id="Path_123724" data-name="Path 123724" d="M16.946,8.406A1.846,1.846,0,0,0,18.792,6.56V2.946a1.846,1.846,0,1,0-3.692,0V6.56A1.846,1.846,0,0,0,16.946,8.406Z" transform="translate(13.47)" fill="#af7f28" stroke="#fff" stroke-width="1"/>
    <path id="Path_123725" data-name="Path 123725" d="M31.613,12.909H28A1.846,1.846,0,0,0,28,16.6h3.614a1.846,1.846,0,0,0,0-3.692Z" transform="translate(25.088 12.413)" fill="#af7f28" stroke="#fff" stroke-width="1"/>
    <path id="Path_123726" data-name="Path 123726" d="M7.743,12.909H4.131a1.846,1.846,0,1,0,0,3.692H7.745a1.846,1.846,0,1,0,0-3.692Z" transform="translate(0 12.413)" fill="#af7f28" stroke="#fff" stroke-width="1"/>
    <path id="Path_123727" data-name="Path 123727" d="M9.846,10.266a1.846,1.846,0,1,0,2.613-2.609L9.9,5.1A1.846,1.846,0,0,0,7.29,7.709Z" transform="translate(4.692 3.635)" fill="#af7f28" stroke="#fff" stroke-width="1"/>
    <path id="Path_123728" data-name="Path 123728" d="M25.3,5.1,22.746,7.654a1.846,1.846,0,0,0,2.613,2.609l2.556-2.556A1.846,1.846,0,1,0,25.3,5.1Z" transform="translate(20.937 3.636)" fill="#af7f28" stroke="#fff" stroke-width="1"/>
  </g>
</svg>
