<svg xmlns="http://www.w3.org/2000/svg" width="35.442" height="29.702" viewBox="0 0 35.442 29.702">
  <path id="wallet-13" d="M30.854,7.74H6.458A5.042,5.042,0,0,1,2.336,5.589,5.023,5.023,0,0,1,6.458,3.435H33.724a.718.718,0,0,0,0-1.435H6.458A6.458,6.458,0,0,0,0,8.458V24.244A6.458,6.458,0,0,0,6.458,30.7h24.4a3.587,3.587,0,0,0,3.588-3.588V11.328A3.587,3.587,0,0,0,30.854,7.74Zm2.153,19.374a2.155,2.155,0,0,1-2.153,2.153H6.458a5.028,5.028,0,0,1-5.023-5.023V8.458a5,5,0,0,1,.21-1.437A6.484,6.484,0,0,0,6.458,9.175h24.4a2.155,2.155,0,0,1,2.153,2.153Zm-2.87-7.893A1.435,1.435,0,1,1,28.7,17.786,1.436,1.436,0,0,1,30.137,19.221Z" transform="translate(0.5 -1.5)" fill="#5ca898" stroke="#5ca898" stroke-width="1"/>
</svg>
