<svg id="Group_97740" data-name="Group 97740" xmlns="http://www.w3.org/2000/svg" xmlns:xlink="http://www.w3.org/1999/xlink" width="20.491" height="24.344" viewBox="0 0 20.491 24.344">
  <defs>
    <clipPath id="clip-path">
      <rect id="Rectangle_53523" data-name="Rectangle 53523" width="20.491" height="24.344" fill="#fff"/>
    </clipPath>
  </defs>
  <g id="Group_97737" data-name="Group 97737" clip-path="url(#clip-path)">
    <path id="Path_124511" data-name="Path 124511" d="M20.487,23.628a5.115,5.115,0,0,0-.514.161,7.255,7.255,0,0,1-4.2.424,22.508,22.508,0,0,1-4.121-1.269,36.2,36.2,0,0,0-4.268-1.428,12.788,12.788,0,0,0-4.269-.35c-.353.034-.7.093-1.063.121.044-.018.088-.038.133-.054a25.657,25.657,0,0,0,6.861-3.6,15.758,15.758,0,0,0,4.171-4.553,10.28,10.28,0,0,0,1.482-5.6,3.6,3.6,0,0,0-3.122-3.57A5.454,5.454,0,0,0,6.984,5.1,3.5,3.5,0,0,0,5.694,7.21a2.73,2.73,0,0,0,.125,1.455.638.638,0,0,0,.847.469,10.655,10.655,0,0,0,1.359-.562,7.9,7.9,0,0,1,1.8-.711,7.447,7.447,0,0,1,1.939-.021c.5.031,1.008.045,1.511.028a1.162,1.162,0,0,0,.855-.449l.056.015c-.023.3-.028.6-.072.9a8.137,8.137,0,0,1-1.254,3.2,18.482,18.482,0,0,1-3.415,3.88,26.281,26.281,0,0,1-8.542,5.06c-.28.1-.566.187-.906.3l.644-.856a37.939,37.939,0,0,0,2.721-3.938,11.277,11.277,0,0,0,1.461-4.114c.057-.432.084-.868.127-1.335a4.212,4.212,0,0,0,1.377,1.67c-.016-.027-.03-.055-.048-.08A9.421,9.421,0,0,1,4.5,7.629,7.128,7.128,0,0,1,6.008,2.066,5.565,5.565,0,0,1,12.555.484a5.555,5.555,0,0,1,2.507,2.462,8.553,8.553,0,0,1,.948,3.36,12.271,12.271,0,0,1-.143,3.243,1.473,1.473,0,0,0,.012.368c.093,1.144.16,2.29.286,3.43a24.255,24.255,0,0,0,1.579,6.805,7.977,7.977,0,0,0,2.743,3.479s0,.01,0,0" transform="translate(0 0)" fill="#fff"/>
  </g>
</svg>
