<svg id="Group_94415" data-name="Group 94415" xmlns="http://www.w3.org/2000/svg" xmlns:xlink="http://www.w3.org/1999/xlink" width="36.836" height="36.835" viewBox="0 0 36.836 36.835">
  <defs>
    <clipPath id="clip-path">
      <rect id="Rectangle_52820" data-name="Rectangle 52820" width="15.412" height="15.757" fill="#d7a54a"/>
    </clipPath>
  </defs>
  <g id="Ellipse_3010" data-name="Ellipse 3010" transform="translate(0 0)" fill="none" stroke="#d7a54a" stroke-width="1">
    <circle cx="18.418" cy="18.418" r="18.418" stroke="none"/>
    <circle cx="18.418" cy="18.418" r="17.918" fill="none"/>
  </g>
  <g id="Group_94416" data-name="Group 94416" transform="translate(10.618 9.693)">
    <g id="Group_94415-2" data-name="Group 94415" clip-path="url(#clip-path)">
      <path id="Path_123549" data-name="Path 123549" d="M14.879.05C14.32.7,13.764,1.359,13.2,2.01c-.39.453-.788.9-1.178,1.35-.455.529-.9,1.065-1.357,1.594-.38.442-.766.878-1.149,1.317-.08.091-.156.186-.239.275a.177.177,0,0,0-.01.262c.5.721.992,1.45,1.488,2.175q1.072,1.565,2.148,3.127,1.23,1.782,2.467,3.559c.011.016.019.034.039.07-.06.005-.11.014-.159.014-1.421,0-2.841,0-4.262.005a.277.277,0,0,1-.26-.138Q9.24,13.446,7.748,11.275c-.339-.493-.685-.981-1.017-1.478-.088-.132-.15-.109-.232-.013-.373.437-.744.877-1.119,1.313-.287.334-.581.663-.868,1-.384.447-.763.9-1.147,1.344q-.543.634-1.091,1.264c-.275.318-.548.638-.834.946a.376.376,0,0,1-.244.1c-.381.01-.762,0-1.2,0l6.021-6.99L0,.006H.249c1.359,0,2.718,0,4.076-.006a.44.44,0,0,1,.422.223c.583.868,1.181,1.727,1.772,2.591q.931,1.36,1.859,2.721c.053.078.117.148.193.244.161-.176.324-.344.477-.521.31-.359.613-.724.92-1.086q.564-.664,1.132-1.326c.292-.339.589-.673.881-1.012s.588-.69.883-1.034c.2-.232.4-.466.6-.69a.325.325,0,0,1,.207-.1c.4-.007.8,0,1.193,0a.035.035,0,0,0,.009.037m-13,.977c.067.123.11.222.171.309q1.168,1.671,2.34,3.339c.606.86,1.222,1.714,1.826,2.575.852,1.214,1.7,2.433,2.545,3.649q1.306,1.868,2.614,3.735a.287.287,0,0,0,.265.144c.59,0,1.18,0,1.77,0,.044,0,.087-.007.143-.012-.567-.815-1.119-1.613-1.675-2.409q-1.2-1.715-2.406-3.427Q7.886,6.672,6.306,4.416c-.745-1.066-1.482-2.136-2.228-3.2-.055-.078-.152-.179-.232-.181-.65-.015-1.3-.008-1.972-.008" transform="translate(0 0)" fill="#d7a54a"/>
    </g>
  </g>
</svg>
