<svg id="Group_94419" data-name="Group 94419" xmlns="http://www.w3.org/2000/svg" width="36.836" height="36.835" viewBox="0 0 36.836 36.835">
  <g id="Ellipse_3010" data-name="Ellipse 3010" transform="translate(0 0)" fill="none" stroke="#d7a54a" stroke-width="1">
    <circle cx="18.418" cy="18.418" r="18.418" stroke="none"/>
    <circle cx="18.418" cy="18.418" r="17.918" fill="none"/>
  </g>
  <g id="Icon_feather-youtube" data-name="Icon feather-youtube" transform="translate(9.183 11.89)">
    <path id="Path_29" data-name="Path 29" d="M10.368,5.25a58.116,58.116,0,0,1,7.232.362l.019,0A2.833,2.833,0,0,1,19.591,7.65q0,.017.007.035a24.552,24.552,0,0,1,.389,4.5,24.558,24.558,0,0,1-.389,4.431q0,.017-.007.035a2.833,2.833,0,0,1-1.972,2.033l-.007,0a53.107,53.107,0,0,1-7.243.4,53.107,53.107,0,0,1-7.243-.4A2.843,2.843,0,0,1,1.15,16.732q-.007-.025-.012-.051a24.553,24.553,0,0,1-.389-4.5,24.555,24.555,0,0,1,.389-4.464q0-.017.007-.035A2.833,2.833,0,0,1,3.118,5.65l.007,0A53.108,53.108,0,0,1,10.368,5.25ZM17.34,6.637a55.866,55.866,0,0,0-6.972-.33A50.828,50.828,0,0,0,3.4,6.669,1.773,1.773,0,0,0,2.176,7.924a23.5,23.5,0,0,0-.368,4.256s0,0,0,.006a23.494,23.494,0,0,0,.367,4.28,1.779,1.779,0,0,0,1.227,1.2,50.748,50.748,0,0,0,6.967.361,50.827,50.827,0,0,0,6.966-.361,1.773,1.773,0,0,0,1.226-1.255,23.5,23.5,0,0,0,.368-4.224s0,0,0-.005a23.493,23.493,0,0,0-.368-4.289A1.773,1.773,0,0,0,17.34,6.637Z" transform="translate(-0.749 -5.25)" fill="#d7a54a"/>
    <path id="Path_30" data-name="Path 30" d="M14.4,18.432a.529.529,0,0,1-.529-.529V12.5a.529.529,0,0,1,.79-.46l4.751,2.7a.529.529,0,0,1,0,.919l-4.751,2.7A.529.529,0,0,1,14.4,18.432Zm.529-5.024v3.586L18.085,15.2Z" transform="translate(-6.644 -8.268)" fill="#d7a54a"/>
  </g>
</svg>
