<svg xmlns="http://www.w3.org/2000/svg" version="1.1" xmlns:xlink="http://www.w3.org/1999/xlink" xmlns:svgjs="http://svgjs.dev/svgjs" width="1440" height="574" preserveAspectRatio="none" viewBox="0 0 1440 574"><g mask="url(&quot;#SvgjsMask3277&quot;)" fill="none"><rect width="1440" height="574" x="0" y="0" fill="url(&quot;#SvgjsLinearGradient3278&quot;)"></rect><path d="M144 12C117.22 12 101.76 79.23 101.76 144C101.76 191.82 117.95 237.18 144 237.18C173.5 237.18 212.87 193.27 212.87 144C212.87 80.68 172.77 12 144 12" stroke="rgba(0, 0, 0, 0.23)" stroke-width="2"></path><path d="M698.67 0C721.27 39.56 650.8 88.51 658.29 144C661.46 167.48 691.83 157.94 720 157.94C727.59 157.94 725.11 151.11 729.82 144C777.47 72.14 770.08 58.65 824.73 0C837.17 -13.35 844.37 0 864 0C936 0 936 0 1008 0C1080 0 1080 0 1152 0C1224 0 1224 0 1296 0C1368 0 1404 -36 1440 0C1476 36 1440 72 1440 144C1440 216 1440 216 1440 288C1440 360 1440 360 1440 432C1440 504 1476 540 1440 576C1404 612 1368 576 1296 576C1224 576 1224 576 1152 576C1132 576 1126.23 588.33 1112 576C1054.23 525.93 1061.82 451.2 1008 451.2C951.32 451.2 953.19 522.11 891 576C881.19 584.51 877.5 576 864 576C792 576 792 576 720 576C654.55 576 650.63 583.69 589.09 576C578.63 574.69 583.78 558 576 558C565.86 558 567.16 574.26 553.26 576C495.16 583.26 492.63 576 432 576C360 576 360 576 288 576C263.37 576 261.82 583.04 238.74 576C189.82 561.09 186.4 532.1 144 532.1C120.85 532.1 132.57 568.4 107.64 576C60.57 590.35 23.02 606.8 0 576C-30.8 534.8 0 504 0 432C0 360 0 360 0 288C0 216 0 216 0 144C0 72 -36 36 0 0C36 -36 72 0 144 0C216 0 216 0 288 0C360 0 360 0 432 0C504 0 504 0 576 0C637.34 0 680.13 -32.44 698.67 0" stroke="rgba(0, 0, 0, 0.23)" stroke-width="2"></path><path d="M1008 133.57C999.71 133.57 992.35 135.43 992.35 144C992.35 185.64 998.18 234 1008 234C1018.01 234 1032 183.2 1032 144C1032 132.99 1019.53 133.57 1008 133.57" stroke="rgba(0, 0, 0, 0.23)" stroke-width="2"></path><path d="M1296 126.72C1284.02 126.72 1273.31 129.28 1268.13 144C1244.94 209.92 1231.17 220.21 1239.27 288C1245.1 336.78 1273.72 377.14 1296 377.14C1315.65 377.14 1320.96 333.62 1323.13 288C1326.5 217.05 1318.96 214.63 1307.08 144C1305.4 133.99 1303.5 126.72 1296 126.72" stroke="rgba(0, 0, 0, 0.23)" stroke-width="2"></path><path d="M576 201.6C535.6 201.6 468 255.37 468 288C468 314.57 527.05 320 576 320C593.76 320 601.41 306.48 601.41 288C601.41 247.28 602.31 201.6 576 201.6" stroke="rgba(0, 0, 0, 0.23)" stroke-width="2"></path><path d="M288 413.33C276.6 413.33 272.25 421.08 272.25 432C272.25 455.61 268.15 482.4 288 482.4C339.02 482.4 414 449.81 414 432C414 415.28 347.47 413.33 288 413.33" stroke="rgba(0, 0, 0, 0.23)" stroke-width="2"></path><path d="M720 368.64C684.03 368.64 646.33 400.68 646.33 432C646.33 462.82 683.99 492.92 720 492.92C753.83 492.92 786 462.78 786 432C786 400.64 753.87 368.64 720 368.64" stroke="rgba(0, 0, 0, 0.23)" stroke-width="2"></path><path d="M0 40.62C14.24 40.62 35.28 89.32 53.76 144C77.08 213.01 53.5 226.08 83.61 288C98.62 318.88 114.41 329.6 144 329.6C171.35 329.6 176.51 314.13 197.49 288C248.51 224.46 243.09 219.33 288 150.26C289.91 147.33 288.35 146.1 291.13 144C360.35 91.54 360.41 90.86 432 41.14C464.08 18.86 462.32 10.33 498.46 0C534.32 -10.24 537.23 0 576 0C604 0 632 -13.69 632 0C632 22.31 602.3 34.8 576 72C551.39 106.8 557.84 111.87 530.18 144C485.84 195.51 484.21 195.52 432 239.29C398.32 267.52 393.72 261.66 358.4 288C321.72 315.35 320.1 314.21 288 346.67C248.9 386.21 255.6 393.08 216 432C183.6 463.84 176.19 456.18 144 488.2C103.82 528.18 115.57 548.99 71.27 576C43.57 592.89 11.8 599.84 0 576C-23.84 527.84 0 504 0 432C0 360 0 360 0 288C0 216 0 216 0 144C0 92.31 -12.64 40.62 0 40.62" stroke="rgba(0, 0, 0, 0.23)" stroke-width="2"></path><path d="M811.64 144C811.64 111.56 840.58 115.71 864 83.37C892.72 43.71 878.77 21.52 915.93 0C950.77 -20.17 961.96 0 1008 0C1080 0 1080 0 1152 0C1224 0 1224 0 1296 0C1368 0 1404 -36 1440 0C1476 36 1440 72 1440 144C1440 216 1440 216 1440 288C1440 360 1440 360 1440 432C1440 504 1448.08 576 1440 576C1431.71 576 1423.45 504.04 1407.27 432C1391.1 360.04 1388.89 360.45 1375.3 288C1361.87 216.45 1376.18 211.5 1353.23 144C1336.53 94.86 1334.73 54.72 1296 54.72C1234.12 54.72 1226.74 137.08 1152 144C1082.74 150.41 1077.21 81.39 1008 81.39C958.25 81.39 952.46 104.58 914.09 144C880.46 178.55 889.46 229.33 864 229.33C838.24 229.33 811.64 184.54 811.64 144" stroke="rgba(0, 0, 0, 0.23)" stroke-width="2"></path><path d="M707.29 288C707.29 281.78 712.21 274.06 720 274.06C733.99 274.06 750.86 282.2 750.86 288C750.86 293.49 734.72 296.64 720 296.64C712.94 296.64 707.29 293.07 707.29 288" stroke="rgba(0, 0, 0, 0.23)" stroke-width="2"></path><path d="M861 432C861 426.15 861.84 420 864 420C866.34 420 870 426.45 870 432C870 435.58 866.5 438.26 864 438.26C862 438.26 861 435.28 861 432" stroke="rgba(0, 0, 0, 0.23)" stroke-width="2"></path><path d="M1105.41 432C1105.41 386.01 1126.74 333 1152 333C1178.32 333 1208.57 387.02 1208.57 432C1208.57 462.07 1179.05 483.1 1152 483.1C1127.47 483.1 1105.41 461.06 1105.41 432" stroke="rgba(0, 0, 0, 0.23)" stroke-width="2"></path><path d="M698.18 576C698.18 572.25 708.79 562.15 720 562.15C733.03 562.15 746.67 572.33 746.67 576C746.67 579.26 733.34 576 720 576C709.09 576 698.18 579.17 698.18 576" stroke="rgba(0, 0, 0, 0.23)" stroke-width="2"></path><path d="M0 132.92C1.53 132.92 5.76 137.96 5.76 144C5.76 165.1 1.45 187.2 0 187.2C-1.43 187.2 0 165.6 0 144C0 138.46 -1.35 132.92 0 132.92" stroke="rgba(0, 0, 0, 0.23)" stroke-width="2"></path><path d="M369.39 144C369.39 121.71 402.73 98.29 432 98.29C455.86 98.29 475.64 121.56 475.64 144C475.64 165.59 455.68 186.35 432 186.35C402.56 186.35 369.39 165.74 369.39 144" stroke="rgba(0, 0, 0, 0.23)" stroke-width="2"></path><path d="M1008 29.22C987.43 23.21 974.95 8.35 974.95 0C974.95 -6.26 991.47 0 1008 0C1080 0 1080 0 1152 0C1202.4 0 1252.8 -12.17 1252.8 0C1252.8 13.68 1205.53 45.3 1152 51.69C1083.13 59.91 1075.96 49.06 1008 29.22" stroke="rgba(0, 0, 0, 0.23)" stroke-width="2"></path><path d="M1399.38 144C1393.56 72.65 1387.75 57.61 1404 0C1408.06 -14.39 1436.4 -14.4 1440 0C1454.4 57.6 1440 72 1440 144C1440 216 1440 216 1440 288C1440 304.62 1443.03 321.23 1440 321.23C1436.77 321.23 1431.44 305.27 1427.48 288C1411.13 216.65 1405.3 216.65 1399.38 144" stroke="rgba(0, 0, 0, 0.23)" stroke-width="2"></path><path d="M110.4 432C110.4 422.8 129.3 409.6 144 409.6C153.97 409.6 159.75 421.97 159.75 432C159.75 439.32 152.84 444.29 144 444.29C128.17 444.29 110.4 440.15 110.4 432" stroke="rgba(0, 0, 0, 0.23)" stroke-width="2"></path><path d="M0 502.47C9.17 502.47 34.91 550.27 34.91 576C34.91 587.04 5.62 587.84 0 576C-11.84 551.07 -8.28 502.47 0 502.47" stroke="rgba(0, 0, 0, 0.23)" stroke-width="2"></path></g><defs><mask id="SvgjsMask3277"><rect width="1440" height="574" fill="#ffffff"></rect></mask><linearGradient x1="15.03%" y1="137.72%" x2="84.97%" y2="-37.72%" gradientUnits="userSpaceOnUse" id="SvgjsLinearGradient3278"><stop stop-color="rgba(0, 0, 0, 0.26)" offset="0"></stop><stop stop-color="rgba(255, 255, 255, 0.68)" offset="1"></stop></linearGradient></defs></svg>