<svg xmlns="http://www.w3.org/2000/svg" version="1.1" xmlns:xlink="http://www.w3.org/1999/xlink" xmlns:svgjs="http://svgjs.dev/svgjs" width="1440" height="560" preserveAspectRatio="none" viewBox="0 0 1440 560"><g mask="url(&quot;#SvgjsMask2093&quot;)" fill="none"><rect width="1440" height="560" x="0" y="0" fill="rgba(228, 224, 227, 0.72)"></rect><path d="M0 73.68C48.02 63.68 91.84 131.31 140 110.83C178.47 94.47 136.84 28.82 173.25 0C206.84 -26.59 226.63 0 280 0C350 0 350 0 420 0C490 0 490 0 560 0C630 0 630 0 700 0C770 0 770 0 840 0C910 0 910 0 980 0C1050 0 1050 0 1120 0C1190 0 1190 0 1260 0C1330 0 1330 0 1400 0C1446.66 0 1447.95 -6.37 1493.33 0C1517.95 3.46 1533.09 -1.08 1540 19.65C1556.42 68.92 1540 79.82 1540 140C1540 210 1540 210 1540 280C1540 350 1540 350 1540 420C1540 490 1575 525 1540 560C1505 595 1470 560 1400 560C1330 560 1330 560 1260 560C1208.42 560 1156.84 585 1156.84 560C1156.84 519.66 1194.46 457.63 1260 429.33C1316.04 405.13 1337.59 458.63 1400 455C1417.74 453.97 1415.13 439.35 1420.29 420C1438.46 351.85 1453.6 343.78 1446.67 280C1443.46 250.45 1420.09 233.33 1400 233.33C1383.73 233.33 1390.15 258.85 1373.95 280C1320.15 350.24 1317.57 416.11 1260 416.11C1201.56 416.11 1194.92 351.78 1141.93 280C1124.92 256.96 1131.97 226.47 1120 226.47C1107.62 226.47 1096.32 251.04 1093.24 280C1086.03 347.81 1100.5 350.06 1099.41 420C1098.32 490.06 1122.52 520.58 1088.89 560C1062.81 590.58 1034.45 560 980 560C910 560 910 560 840 560C770 560 770 560 700 560C630 560 630 560 560 560C490 560 490 560 420 560C363.79 560 361.1 568 307.58 560C291.1 557.54 296.49 539.31 280 539.08C212.7 538.16 209.79 547.64 140 557.7C137.19 558.1 137.64 559.95 134.81 560C67.64 561.1 43.46 583.95 0 560C-23.95 546.8 -9.57 520.24 0 485.71C9.83 450.24 38.8 452.77 38.8 420C38.8 387.71 9.67 390.5 0 355.6C-9.73 320.5 0 317.8 0 280C0 210 0 210 0 140C0 106.84 -21.98 78.26 0 73.68" stroke="rgba(246, 242, 233, 1)" stroke-width="2"></path><path d="M280 112.37C227.33 112.37 183.1 105.43 175 140C163.46 189.24 201.33 215.01 240.73 280C253.83 301.61 259.5 313.2 280 313.2C303.53 313.2 312.75 303.81 328.79 280C371.08 217.21 410.45 187.34 396.67 140C386.05 103.52 338.16 112.37 280 112.37" stroke="rgba(246, 242, 233, 1)" stroke-width="2"></path><path d="M560 124.78C518.88 124.78 472.5 129.62 472.5 140C472.5 150.69 521.95 166.92 560 166.92C572.56 166.92 573.73 152.55 573.73 140C573.73 131.48 569.49 124.78 560 124.78" stroke="rgba(246, 242, 233, 1)" stroke-width="2"></path><path d="M840 108.27C819.28 108.27 802.22 118.95 802.22 140C802.22 188.9 815.99 248.18 840 248.18C866.19 248.18 902.63 184.8 902.63 140C902.63 114.84 869.49 108.27 840 108.27" stroke="rgba(246, 242, 233, 1)" stroke-width="2"></path><path d="M700 395.11C681.13 395.11 665 402.95 665 420C665 452.73 678.19 494.67 700 494.67C725.16 494.67 758.95 449.76 758.95 420C758.95 399.98 728.11 395.11 700 395.11" stroke="rgba(246, 242, 233, 1)" stroke-width="2"></path><path d="M280 66.32C245.14 66.32 217 19.64 217 0C217 -13.52 248.5 0 280 0C327.54 0 375.09 -14.94 375.09 0C375.09 18.22 324.18 66.32 280 66.32" stroke="rgba(246, 242, 233, 1)" stroke-width="2"></path><path d="M560 48.7C529.61 20.38 492.12 13.43 492.12 0C492.12 -10.92 526.06 0 560 0C630 0 630 0 700 0C770 0 770 0 840 0C907.94 0 975.88 -14.68 975.88 0C975.88 16.12 903.07 23.08 840 61.6C788.47 93.08 767.02 89.2 746.67 140C723.27 198.4 768.49 219.26 752.5 280C745.15 307.92 728.85 317.33 700 317.33C650.1 317.33 607.39 318.12 595 280C578.57 229.45 651.9 203.13 642.35 140C634.4 87.48 604.73 90.38 560 48.7" stroke="rgba(246, 242, 233, 1)" stroke-width="2"></path><path d="M1120 128.8C1050.33 65.91 982.98 37.26 982.98 0C982.98 -27.14 1051.49 0 1120 0C1190 0 1190 0 1260 0C1292.94 0 1299.38 -14.91 1325.88 0C1369.38 24.47 1353.35 61.09 1400 78.75C1460.41 101.61 1490.74 59.5 1540 81.05C1560.74 90.12 1540 110.53 1540 140C1540 210 1540 210 1540 280C1540 350 1540 350 1540 420C1540 488 1549.94 496.38 1540 556C1538.27 566.38 1528.48 559.66 1516.67 560C1458.48 561.66 1458.34 560 1400 560C1330 560 1330 560 1260 560C1254.47 560 1248.95 562.68 1248.95 560C1248.95 555.68 1251.47 546.99 1260 546C1326.99 538.24 1347.54 573.83 1400 542.5C1453.04 510.83 1441.8 484.13 1471.01 420C1501.59 352.88 1536.16 340.62 1519.58 280C1500.66 210.83 1451.48 160.42 1400 160.42C1358.32 160.42 1371.44 223.52 1333.26 280C1301.44 327.06 1297.01 367.5 1260 367.5C1222.43 367.5 1210.93 330.06 1184.1 280C1149.96 216.31 1166.07 206.07 1138.06 140C1134.02 130.47 1127.87 135.91 1120 128.8" stroke="rgba(246, 242, 233, 1)" stroke-width="2"></path><path d="M0 248.89C58.05 212.34 81.69 182.69 140 191.85C180.71 198.25 163.34 240.97 198.05 280C233.34 319.68 237.22 349.28 280 349.28C329.1 349.28 338.02 321.39 381.82 280C408.02 255.25 392.48 217 420 217C468.84 217 503.26 231.14 534.55 280C568.26 332.64 548.94 349.9 550 420C551.06 489.9 574.01 522.08 538.79 560C509.01 592.08 479.39 560 420 560C390.31 560 386.5 571.31 360.61 560C316.5 540.73 326.27 511.37 280 498.85C215.97 481.53 198.13 523.36 140 500.33C98.61 483.93 108.16 461.71 80.96 420C38.16 354.35 39.09 353.19 0 285.6C-1.39 283.19 0 282.8 0 280C0 264.44 -11.95 256.41 0 248.89" stroke="rgba(246, 242, 233, 1)" stroke-width="2"></path><path d="M896 280C921.31 212.15 942.13 156.47 980 156.47C1015.01 156.47 1024.9 214.6 1041.76 280C1058.87 346.36 1055.48 351.14 1047.94 420C1040.15 491.14 1039.07 502.38 1011.11 560C1005.1 572.38 995.56 560 980 560C936.25 560 911.37 586.87 892.5 560C862.22 516.87 880.83 489.92 881.7 420C882.58 349.92 872.16 343.92 896 280" stroke="rgba(246, 242, 233, 1)" stroke-width="2"></path><path d="M0 557.14C1.75 557.14 5.19 559.24 5.19 560C5.19 560.67 1.67 560.92 0 560C-0.92 559.49 -0.84 557.14 0 557.14" stroke="rgba(246, 242, 233, 1)" stroke-width="2"></path><path d="M280 20.26C269.35 20.26 260.75 6 260.75 0C260.75 -4.13 270.38 0 280 0C294.53 0 309.06 -4.57 309.06 0C309.06 5.56 293.5 20.26 280 20.26" stroke="rgba(246, 242, 233, 1)" stroke-width="2"></path><path d="M840 14.93C811.19 14.93 781.05 3.79 781.05 0C781.05 -3.67 810.53 0 840 0C856.47 0 872.94 -3.56 872.94 0C872.94 3.91 857.13 14.93 840 14.93" stroke="rgba(246, 242, 233, 1)" stroke-width="2"></path><path d="M1120 58.8C1087.19 58.8 1057.45 17.01 1057.45 0C1057.45 -12.39 1088.72 0 1120 0C1158.68 0 1197.37 -13.03 1197.37 0C1197.37 16.37 1157.15 58.8 1120 58.8" stroke="rgba(246, 242, 233, 1)" stroke-width="2"></path><path d="M1250.97 140C1252.8 131.61 1254.71 125.26 1260 125.26C1266.22 125.26 1271.95 130.26 1274 140C1288.23 207.63 1297.71 214.19 1292.56 280C1290.71 303.64 1276.45 318.89 1260 318.89C1243.3 318.89 1227.47 303.78 1226.27 280C1222.96 214.33 1235.93 208.98 1250.97 140" stroke="rgba(246, 242, 233, 1)" stroke-width="2"></path><path d="M100.63 280C102.69 260.07 123.01 256.67 140 256.67C150.38 256.67 145.14 270.59 155.37 280C215.14 334.94 212.31 341.88 280 385.36C321.29 411.88 373.33 401.82 373.33 420C373.33 438.45 328.72 453.83 280 458.62C212.05 465.3 205.24 459.01 140 442.95C126.81 439.7 126.42 433.63 123.13 420C106.74 352.15 94.25 341.74 100.63 280" stroke="rgba(246, 242, 233, 1)" stroke-width="2"></path><path d="M966 280C967.8 267.9 973.69 259.41 980 259.41C985.83 259.41 989.13 268.67 990.29 280C997.36 348.97 1000.23 350.97 996.47 420C995.09 445.32 989.81 468.7 980 468.7C969.66 468.7 958.12 446.29 956.17 420C951.12 351.94 955.88 348.2 966 280" stroke="rgba(246, 242, 233, 1)" stroke-width="2"></path><path d="M1521.74 420C1521.74 397.11 1535.27 373.33 1540 373.33C1544.4 373.33 1540 396.66 1540 420C1540 438 1544.3 456 1540 456C1535.17 456 1521.74 438.44 1521.74 420" stroke="rgba(246, 242, 233, 1)" stroke-width="2"></path><path d="M413.64 560C413.64 548.54 415.39 532 420 532C424.94 532 432.73 550.1 432.73 560C432.73 564.1 426.37 560 420 560C416.82 560 413.64 562.54 413.64 560" stroke="rgba(246, 242, 233, 1)" stroke-width="2"></path></g><defs><mask id="SvgjsMask2093"><rect width="1440" height="560" fill="#ffffff"></rect></mask></defs></svg>