<svg xmlns="http://www.w3.org/2000/svg" version="1.1" xmlns:xlink="http://www.w3.org/1999/xlink" xmlns:svgjs="http://svgjs.dev/svgjs" width="1440" height="560" preserveAspectRatio="none" viewBox="0 0 1440 560"><g mask="url(&quot;#SvgjsMask2099&quot;)" fill="none"><rect width="1440" height="560" x="0" y="0" fill="rgba(228, 224, 227, 0.72)"></rect><path d="M420 103.28C403.09 103.28 393.01 121.9 393.01 140C393.01 157.23 403.37 173.94 420 173.94C445.59 173.94 477.44 157.47 477.44 140C477.44 122.14 445.3 103.28 420 103.28" stroke="rgba(243, 243, 243, 1)" stroke-width="2"></path><path d="M1260 117.21C1198.77 128.71 1137.5 125.56 1137.5 140C1137.5 154.78 1197.61 163.59 1260 175.64C1328.86 188.95 1333.44 200.83 1400 190.72C1450.73 183.01 1494.59 165.08 1494.59 140C1494.59 115.07 1450.22 95.58 1400 90.7C1332.92 84.18 1330.02 104.06 1260 117.21" stroke="rgba(243, 243, 243, 1)" stroke-width="2"></path><path d="M280 358.91C239.73 358.91 191.58 391.83 191.58 420C191.58 446.37 238.72 468 280 468C309.18 468 332.5 445.58 332.5 420C332.5 391.03 310.19 358.91 280 358.91" stroke="rgba(243, 243, 243, 1)" stroke-width="2"></path><path d="M80 0C123.85 37.59 94.43 110.43 140 120C194.43 131.43 210.76 82.27 280 42C313.92 22.27 310.21 10.83 346.32 0C380.21 -10.17 383.16 0 420 0C471.85 0 523.7 -10.96 523.7 0C523.7 11.99 462.58 11.41 420 45.9C376.15 81.41 350.84 93.61 350.84 140C350.84 184.14 378.56 191.54 420 226.97C460.44 261.54 503.41 238.9 514.59 280C529.66 335.41 460.13 358.63 472.5 420C482.84 471.32 515.13 463.91 560 505.37C590.88 533.91 624 544.49 624 560C624 571.8 592 560 560 560C490 560 490 560 420 560C350 560 350 560 280 560C210 560 210 560 140 560C129.5 560 119 567.57 119 560C119 536.07 114.3 503.71 140 497C194.8 482.71 218.99 537 280 518C342.59 498.5 387.19 472.23 387.19 420C387.19 360.86 335.68 355.29 280 295.27C270.74 285.29 266.97 289.62 257.3 280C196.97 219.98 210.65 188.53 140 156C82 129.3 60.67 168.47 0 161.54C-9.33 160.47 0 150.77 0 140C0 70 -25.45 44.55 0 0C14.55 -25.45 53.85 -22.41 80 0" stroke="rgba(243, 243, 243, 1)" stroke-width="2"></path><path d="M566.67 140C569.15 87.94 638.24 53.85 700 53.85C746.7 53.85 751.02 90.67 783.58 140C821.02 196.74 805.59 208.94 840 266C847.8 278.94 868 266.15 868 280C868 343.15 875.47 419.2 840 420C791.47 421.09 771.22 349.92 700 283.78C695.84 279.92 693.08 284.16 689.23 280C626.42 212.27 563.76 201.02 566.67 140" stroke="rgba(243, 243, 243, 1)" stroke-width="2"></path><path d="M980 66.32C934.7 47.45 902.86 18.86 902.86 0C902.86 -14.3 941.43 0 980 0C1050 0 1050 0 1120 0C1190 0 1190 0 1260 0C1330 0 1330 0 1400 0C1427.22 0 1454.44 -9.18 1454.44 0C1454.44 11.53 1431.26 29.11 1400 41.41C1334.04 67.36 1330.89 64.09 1260 76.51C1190.89 88.62 1189.66 93 1120 90.46C1049.66 87.9 1043.27 92.68 980 66.32" stroke="rgba(243, 243, 243, 1)" stroke-width="2"></path><path d="M1216.08 280C1216.08 260.62 1232.45 245.05 1260 239.27C1324.41 225.77 1333.2 255.9 1400 241.45C1473.2 225.62 1497.84 167.11 1540 178.72C1567.84 186.38 1540 229.36 1540 280C1540 316.06 1563.53 344.41 1540 352.12C1493.53 367.34 1470.48 335.47 1400 325.86C1330.48 316.38 1325.92 330.38 1260 313.94C1233.96 307.45 1216.08 297.96 1216.08 280" stroke="rgba(243, 243, 243, 1)" stroke-width="2"></path><path d="M0 357C32.4 357 99.47 391.27 99.47 420C99.47 447 34.59 468.46 0 468.46C-15.15 468.46 0 444.23 0 420C0 388.5 -17.34 357 0 357" stroke="rgba(243, 243, 243, 1)" stroke-width="2"></path><path d="M907.59 560C907.59 533.28 932.58 488.66 980 472.5C1038.79 452.46 1056.72 463.65 1120 487.59C1172.37 507.4 1211.3 539.7 1211.3 560C1211.3 575.91 1165.65 560 1120 560C1050 560 1050 560 980 560C943.8 560 907.59 577.03 907.59 560" stroke="rgba(243, 243, 243, 1)" stroke-width="2"></path><path d="M1296.72 560C1296.72 539.27 1342.03 501.14 1400 485C1463.67 467.27 1492.8 466.98 1540 492.26C1562.8 504.48 1562.83 548.96 1540 560C1492.83 582.83 1470 560 1400 560C1348.36 560 1296.72 576.77 1296.72 560" stroke="rgba(243, 243, 243, 1)" stroke-width="2"></path><path d="M17.5 0C17.5 13.26 4.59 37.69 0 37.69C-4.16 37.69 -5.98 12.87 0 0C2.77 -5.98 17.5 -5.58 17.5 0" stroke="rgba(243, 243, 243, 1)" stroke-width="2"></path><path d="M217.37 140C217.37 116.27 252.5 100.33 280 100.33C298.15 100.33 308.67 118.61 308.67 140C308.67 171.5 300.17 206.11 280 206.11C254.52 206.11 217.37 169.16 217.37 140" stroke="rgba(243, 243, 243, 1)" stroke-width="2"></path><path d="M650 140C650 120.72 676.84 107.69 700 107.69C717.51 107.69 731.34 121.93 731.34 140C731.34 165.01 718.66 193.85 700 193.85C677.99 193.85 650 163.8 650 140" stroke="rgba(243, 243, 243, 1)" stroke-width="2"></path><path d="M980 4.91C976.37 4 974.29 1.4 974.29 0C974.29 -1.06 977.14 0 980 0C1050 0 1050 0 1120 0C1190 0 1190 0 1260 0C1319.23 0 1378.46 -8.76 1378.46 0C1378.46 9.15 1320.63 27.22 1260 35.81C1191.4 45.53 1189.13 44.25 1120 36.62C1049.13 28.8 1049.22 22.31 980 4.91" stroke="rgba(243, 243, 243, 1)" stroke-width="2"></path><path d="M1456 280C1456 268.39 1507.79 253.19 1540 253.19C1549.79 253.19 1540 266.6 1540 280C1540 289.54 1547.62 299.09 1540 299.09C1505.62 299.09 1456 291.34 1456 280" stroke="rgba(243, 243, 243, 1)" stroke-width="2"></path><path d="M0 415.33C2.4 415.33 7.37 417.87 7.37 420C7.37 422 2.56 423.59 0 423.59C-1.12 423.59 0 421.79 0 420C0 417.66 -1.28 415.33 0 415.33" stroke="rgba(243, 243, 243, 1)" stroke-width="2"></path><path d="M1073.33 560C1073.33 556.93 1097.94 547.93 1120 547.93C1128.89 547.93 1135.22 556.62 1135.22 560C1135.22 562.65 1127.61 560 1120 560C1096.66 560 1073.33 562.97 1073.33 560" stroke="rgba(243, 243, 243, 1)" stroke-width="2"></path><path d="M1354.1 560C1354.1 550.79 1373.43 528.28 1400 526.67C1466.38 522.64 1475.16 533.27 1540 548.71C1545.16 549.94 1545.22 559.58 1540 560C1475.22 565.22 1470 560 1400 560C1377.05 560 1354.1 567.45 1354.1 560" stroke="rgba(243, 243, 243, 1)" stroke-width="2"></path></g><defs><mask id="SvgjsMask2099"><rect width="1440" height="560" fill="#ffffff"></rect></mask></defs></svg>