<svg xmlns="http://www.w3.org/2000/svg" version="1.1" xmlns:xlink="http://www.w3.org/1999/xlink" xmlns:svgjs="http://svgjs.dev/svgjs" width="1440" height="574" preserveAspectRatio="none" viewBox="0 0 1440 574"><g mask="url(&quot;#SvgjsMask3142&quot;)" fill="none"><rect width="1440" height="574" x="0" y="0" fill="rgba(0, 0, 0, 0.79)"></rect><path d="M366.79 0C403.97 13.73 403.1 53.17 432 53.17C454.28 53.17 441.96 10.04 469.16 0C513.96 -16.54 522.58 0 576 0C648 0 648 0 720 0C792 0 792 0 864 0C936 0 936 0 1008 0C1080 0 1080 0 1152 0C1224 0 1224 0 1296 0C1296 0 1296 0 1296 0C1352 72 1356.55 69.16 1408 144C1428.55 173.89 1432.3 174.8 1440 209.45C1448.3 246.8 1440 248.73 1440 288C1440 360 1440 360 1440 432C1440 504 1472.22 536.22 1440 576C1413.89 608.22 1375.53 588.63 1323.34 576C1303.53 571.21 1313.94 541.16 1296 541.16C1261.7 541.16 1259.09 566.27 1218.86 576C1187.09 583.69 1185.43 576 1152 576C1080 576 1080 576 1008 576C936 576 936 576 864 576C792 576 792 576 720 576C648 576 648 576 576 576C504 576 504 576 432 576C360 576 360 576 288 576C216 576 216 576 144 576C72 576 36 612 0 576C-36 540 0 504 0 432C0 360 0 360 0 288C0 216 0 216 0 144C0 72 -36 36 0 0C36 -36 72 0 144 0C216 0 216 0 288 0C327.39 0 331.97 -12.86 366.79 0" stroke="rgba(0, 0, 0, 0.54)" stroke-width="2"></path><path d="M720 259.2C716.73 259.2 715.94 274.26 715.94 288C715.94 290.75 717.57 292.17 720 292.17C724.25 292.17 729.29 292.15 729.29 288C729.29 275.67 723.4 259.2 720 259.2" stroke="rgba(0, 0, 0, 0.54)" stroke-width="2"></path><path d="M576 407.71C546.99 407.71 513 410.81 513 432C513 464.95 552.04 516 576 516C595.99 516 600.89 470.76 600.89 432C600.89 416.61 590.94 407.71 576 407.71" stroke="rgba(0, 0, 0, 0.54)" stroke-width="2"></path><path d="M0 34.56C40.96 0.18 72.68 33.25 144 23.14C194.53 15.97 193.44 8.07 243.69 0C265.44 -3.5 265.85 0 288 0C293.43 0 298.87 -4.85 298.87 0C298.87 43.15 293.58 48.02 288 96C285.21 120.02 282.12 120.44 282.12 144C282.12 150.99 283.52 157.09 288 157.09C294.46 157.09 294.3 147.27 304 144C366.3 123 380.96 144.6 432 108.55C482.89 72.6 460.33 35.84 507.87 0C532.33 -18.44 541.93 0 576 0C648 0 648 0 720 0C764.21 0 808.42 -19.51 808.42 0C808.42 28.95 763.31 47.68 720 96.92C699.97 119.68 689.83 115.81 681.75 144C662.45 211.35 652.84 223.04 665.24 288C671.96 323.22 687.24 344.35 720 344.35C777.33 344.35 785.71 320.21 845.42 288C857.71 281.37 853.43 276.04 864 266.67C934.72 204.04 926.25 177.77 1008 144C1070.25 118.28 1080.83 147.69 1152 147.69C1154.39 147.69 1155.13 146.25 1155.13 144C1155.13 136.41 1159.44 128 1152 128C1085.88 128 1061.78 173.5 1008 144C945.09 109.5 918.62 47.14 918.62 0C918.62 -24.86 963.31 0 1008 0C1080 0 1080 0 1152 0C1169.45 0 1170.75 -5.77 1186.91 0C1242.75 19.94 1250.09 14.93 1296 51.43C1340.64 86.93 1340.38 92.96 1368 144C1404.38 211.24 1391.7 220 1424 288C1427.7 295.79 1439.08 287.31 1440 295.58C1447.08 359.31 1440 363.79 1440 432C1440 504 1463.8 527.8 1440 576C1428.25 599.8 1395.97 593.45 1368.91 576C1323.97 547 1342.49 489.38 1296 483.1C1234.03 474.73 1222.29 511.83 1152 546.71C1128.69 558.28 1133.36 571 1108.8 576C1061.36 585.65 1058.4 576 1008 576C936 576 936 576 864 576C821.86 576 818.37 587.14 779.71 576C746.37 566.39 744.48 560.75 720 534.51C677.29 488.75 686.15 480.24 645.33 432C614.15 395.15 614.95 392.57 576 364.34C515.63 320.57 504.36 332.31 446.69 288C432.36 276.99 441.88 253.71 432 253.71C420.14 253.71 420.08 273.43 403.2 288C348.08 335.57 339.8 378 288 378C247.91 378 259.87 326.17 219.43 288C187.87 258.21 182.6 242.09 144 242.09C99.63 242.09 53.49 257.5 53.49 288C53.49 327.04 95.59 338.28 144 381.18C176.84 410.28 216 404.23 216 432C216 462.87 180 465.23 144 498.46C102 537.23 107.22 550.57 60 576C35.22 589.34 8.82 597.18 0 576C-21.18 525.18 0 504 0 432C0 360 0 360 0 288C0 216 0 216 0 144C0 89.28 -31.04 60.61 0 34.56" stroke="rgba(0, 0, 0, 0.54)" stroke-width="2"></path><path d="M364.8 576C364.8 545.49 398.02 480 432 480C466.38 480 501.52 545.75 501.52 576C501.52 593.75 466.76 576 432 576C398.4 576 364.8 593.49 364.8 576" stroke="rgba(0, 0, 0, 0.54)" stroke-width="2"></path><path d="M30.86 144C30.86 117.93 91.06 87.43 144 87.43C179.95 87.43 208.65 117.35 208.65 144C208.65 168.59 179 189.91 144 189.91C90.1 189.91 30.86 169.17 30.86 144" stroke="rgba(0, 0, 0, 0.54)" stroke-width="2"></path><path d="M473.81 144C480.63 69.68 503.37 60.9 546.58 0C554.46 -11.1 561.29 0 576 0C648 0 648 0 720 0C732.63 0 745.26 -5.57 745.26 0C745.26 8.27 731.98 13.29 720 27.69C672.1 85.29 652.35 77.72 625.5 144C599.62 207.87 632.86 222.52 614.54 288C608.11 311 596.71 320.96 576 320.96C549.52 320.96 535.49 314.55 520.16 288C484.4 226.07 467.42 213.68 473.81 144" stroke="rgba(0, 0, 0, 0.54)" stroke-width="2"></path><path d="M1008 44C990.41 44 980.69 14.4 980.69 0C980.69 -7.6 994.35 0 1008 0C1036.28 0 1064.57 -9.7 1064.57 0C1064.57 12.3 1032.35 44 1008 44" stroke="rgba(0, 0, 0, 0.54)" stroke-width="2"></path><path d="M1233.39 144C1233.39 118.51 1268.1 102.86 1296 102.86C1315.41 102.86 1328 121.25 1328 144C1328 180.74 1317.63 221.84 1296 221.84C1270.33 221.84 1233.39 178 1233.39 144" stroke="rgba(0, 0, 0, 0.54)" stroke-width="2"></path><path d="M995.48 288C996.76 280.1 1000.21 279.72 1008 277.33C1078.47 255.72 1084.51 236.51 1152 240C1187.71 241.85 1193.3 256.04 1214.4 288C1256.66 352.04 1295.38 379.22 1278.72 432C1264.18 478.06 1211.91 452.5 1152 485.69C1081.95 524.5 1086.27 533.68 1018.8 576C1014.27 578.84 1013.4 576 1008 576C954 576 904.93 604.36 900 576C892.41 532.36 957.43 509.02 982.96 432C1005.17 365.02 984.24 357.43 995.48 288" stroke="rgba(0, 0, 0, 0.54)" stroke-width="2"></path><path d="M689.78 432C689.78 413.69 701.44 396.52 720 396.52C750.55 396.52 788 413.12 788 432C788 451.61 749.87 473.49 720 473.49C700.76 473.49 689.78 452.17 689.78 432" stroke="rgba(0, 0, 0, 0.54)" stroke-width="2"></path><path d="M1414.48 576C1414.48 537.81 1433.51 480 1440 480C1446.27 480 1450.08 538.08 1440 576C1437.32 586.08 1414.48 585.81 1414.48 576" stroke="rgba(0, 0, 0, 0.54)" stroke-width="2"></path></g><defs><mask id="SvgjsMask3142"><rect width="1440" height="574" fill="#ffffff"></rect></mask></defs></svg>