<svg id="visual" viewBox="0 0 900 600" width="900" height="600" xmlns="http://www.w3.org/2000/svg" xmlns:xlink="http://www.w3.org/1999/xlink" version="1.1"><rect x="0" y="0" width="900" height="600" fill="#ffffff"></rect><defs><linearGradient id="grad1_0" x1="33.3%" y1="0%" x2="100%" y2="100%"><stop offset="20%" stop-color="#ffffff" stop-opacity="1"></stop><stop offset="80%" stop-color="#ffffff" stop-opacity="1"></stop></linearGradient></defs><defs><linearGradient id="grad2_0" x1="0%" y1="0%" x2="66.7%" y2="100%"><stop offset="20%" stop-color="#ffffff" stop-opacity="1"></stop><stop offset="80%" stop-color="#ffffff" stop-opacity="1"></stop></linearGradient></defs><g transform="translate(900, 0)"><path d="M0 351.5C-31.1 350.7 -62.1 349.8 -91 339.6C-119.8 329.3 -146.5 309.7 -165.5 286.7C-184.5 263.6 -195.9 237 -218.5 218.5C-241.1 200 -274.8 189.6 -291 168C-307.2 146.4 -305.8 113.7 -313 83.9C-320.1 54 -335.8 27 -351.5 0L0 0Z" fill="#feffce"></path></g><g transform="translate(0, 600)"><path d="M0 -351.5C31.3 -349.3 62.6 -347.1 90.1 -336.1C117.6 -325.2 141.3 -305.4 168 -291C194.7 -276.5 224.4 -267.3 248.6 -248.6C272.7 -229.8 291.4 -201.5 297 -171.5C302.7 -141.5 295.4 -109.9 302.3 -81C309.3 -52.2 330.4 -26.1 351.5 0L0 0Z" fill="#feffce"></path></g></svg>