<svg id="visual" viewBox="0 0 960 540" width="960" height="540" xmlns="http://www.w3.org/2000/svg" xmlns:xlink="http://www.w3.org/1999/xlink" version="1.1"><rect x="0" y="0" width="960" height="540" fill="#ffffff"></rect><defs><linearGradient id="grad1_0" x1="43.8%" y1="0%" x2="100%" y2="100%"><stop offset="14.444444444444446%" stop-color="#ffffff" stop-opacity="1"></stop><stop offset="85.55555555555554%" stop-color="#ffffff" stop-opacity="1"></stop></linearGradient></defs><defs><linearGradient id="grad2_0" x1="0%" y1="0%" x2="56.3%" y2="100%"><stop offset="14.444444444444446%" stop-color="#ffffff" stop-opacity="1"></stop><stop offset="85.55555555555554%" stop-color="#ffffff" stop-opacity="1"></stop></linearGradient></defs><g transform="translate(960, 0)"><path d="M0 351C-28.9 335.5 -57.8 320.1 -81.3 303.3C-104.8 286.5 -122.9 268.4 -150.5 260.7C-178.1 253 -215.3 255.6 -243.2 243.2C-271.1 230.9 -289.7 203.4 -304 175.5C-318.2 147.6 -328.1 119.1 -335.2 89.8C-342.3 60.5 -346.6 30.2 -351 0L0 0Z" fill="#feffce"></path></g><g transform="translate(0, 540)"><path d="M0 -351C29.4 -341.9 58.8 -332.7 86.2 -321.7C113.6 -310.6 139.1 -297.5 164 -284.1C188.9 -270.6 213.3 -256.6 239.7 -239.7C266.1 -222.8 294.6 -202.9 304 -175.5C313.3 -148.1 303.5 -113.1 308.1 -82.6C312.8 -52.1 331.9 -26 351 0L0 0Z" fill="#feffce"></path></g></svg>